<?xml version="1.0" encoding="utf-8"?>
<!-- Generator: Adobe Illustrator 27.5.0, SVG Export Plug-In . SVG Version: 6.00 Build 0)  -->
<svg version="1.1" xmlns="http://www.w3.org/2000/svg" xmlns:xlink="http://www.w3.org/1999/xlink" x="0px" y="0px"
	 viewBox="0 0 500 500" style="enable-background:new 0 0 500 500;" xml:space="preserve">
<g id="Background_Complete">
	<g>
		<rect x="416.779" y="398.494" style="fill:#EBEBEB;" width="33.122" height="0.25"/>
		<rect x="322.527" y="401.208" style="fill:#EBEBEB;" width="8.693" height="0.25"/>
		<rect x="396.586" y="389.208" style="fill:#EBEBEB;" width="19.192" height="0.25"/>
		<rect x="52.459" y="390.888" style="fill:#EBEBEB;" width="43.193" height="0.25"/>
		<rect x="104.556" y="390.888" style="fill:#EBEBEB;" width="6.333" height="0.25"/>
		<rect x="131.471" y="395.111" style="fill:#EBEBEB;" width="93.676" height="0.25"/>
		<path style="fill:#EBEBEB;" d="M237.014,337.8H43.915c-3.147,0-5.708-2.561-5.708-5.708V60.66c0-3.147,2.561-5.708,5.708-5.708
			h193.099c3.146,0,5.707,2.561,5.707,5.708v271.432C242.721,335.239,240.16,337.8,237.014,337.8z M43.915,55.203
			c-3.01,0-5.458,2.448-5.458,5.458v271.432c0,3.01,2.448,5.458,5.458,5.458h193.099c3.009,0,5.457-2.448,5.457-5.458V60.66
			c0-3.009-2.448-5.458-5.457-5.458H43.915z"/>
		<path style="fill:#EBEBEB;" d="M453.31,337.8H260.212c-3.147,0-5.707-2.561-5.707-5.708V60.66c0-3.147,2.561-5.708,5.707-5.708
			H453.31c3.148,0,5.708,2.561,5.708,5.708v271.432C459.019,335.239,456.458,337.8,453.31,337.8z M260.212,55.203
			c-3.009,0-5.457,2.448-5.457,5.458v271.432c0,3.01,2.448,5.458,5.457,5.458H453.31c3.01,0,5.458-2.448,5.458-5.458V60.66
			c0-3.009-2.448-5.458-5.458-5.458H260.212z"/>
		<rect y="382.398" style="fill:#EBEBEB;" width="500" height="0.25"/>
	</g>
	<g>
		<rect x="226.34" y="326.935" style="fill:#E6E6E6;" width="227.262" height="55.651"/>
		<g>
			<rect x="301.722" y="364.035" style="fill:#F5F5F5;" width="76.497" height="18.55"/>
			<rect x="311.359" y="345.485" style="fill:#F0F0F0;" width="66.86" height="18.55"/>
			<rect x="321.74" y="326.935" style="fill:#EBEBEB;" width="56.479" height="18.55"/>
		</g>
		<path style="fill:#EBEBEB;" d="M414.339,286.088c0-2.048-1.647-3.709-3.679-3.709v0c2.032,0,3.679-1.661,3.679-3.709
			c-0.001-1.025-0.41-1.95-1.08-2.624c-0.693-0.693-1.624-1.093-2.628-1.081c0-0.002,0-0.004,0-0.006
			c2.018-0.032,3.566-1.814,3.452-3.996c-0.021-1.09-0.574-2.025-1.354-2.632c-0.75-0.599-1.701-0.879-2.685-0.754
			c-0.001-0.004-0.001-0.008-0.001-0.012c1.975-0.297,3.331-2.254,2.968-4.397c-0.538-2.112-2.539-3.375-4.477-2.852
			c-0.001-0.003-0.002-0.007-0.003-0.01c0.956-0.276,1.722-0.914,2.177-1.767c0.495-0.874,0.56-1.931,0.174-2.95
			c-0.753-2.061-2.88-3.083-4.746-2.294c0-0.001,0-0.001-0.001-0.002c1.926-0.781,2.684-2.996,1.727-4.97
			c-0.475-0.98-1.267-1.682-2.164-1.988c-0.939-0.279-1.947-0.186-2.824,0.305c-0.001-0.002-0.002-0.003-0.003-0.005
			c1.758-0.993,2.27-3.3,1.13-5.167c-0.533-0.952-1.518-1.473-2.464-1.654c-0.939-0.17-1.904,0.036-2.707,0.613
			c-0.003-0.004-0.005-0.007-0.008-0.011c1.571-1.192,1.897-3.612,0.483-5.257c-1.466-1.619-3.825-1.785-5.279-0.386
			c-0.001-0.001-0.003-0.003-0.004-0.005c0.72-0.7,1.096-1.637,1.095-2.614c-0.016-0.968-0.479-1.91-1.277-2.649
			c-1.625-1.472-3.956-1.392-5.257,0.231c0,0-0.001-0.001-0.001-0.001c1.294-1.561,0.927-3.893-0.831-5.205
			c-1.704-1.364-4.143-0.772-5.194,0.892c-0.003-0.002-0.005-0.004-0.008-0.005c1.061-1.705,0.432-3.988-1.433-5.115
			c-1.959-0.953-4.218-0.24-5.073,1.576c-0.003-0.001-0.006-0.003-0.009-0.004c0.409-0.908,0.417-1.905,0.06-2.802
			c-0.347-0.941-1.108-1.681-2.136-2.042c-2.059-0.758-4.214,0.204-4.82,2.137c0,0-0.002-0.001-0.003-0.001
			c0.65-1.974-0.547-3.989-2.674-4.53c-1.055-0.272-2.105-0.115-2.917,0.364c-0.818,0.52-1.402,1.366-1.592,2.349
			c-0.002,0-0.003-0.001-0.005-0.001c0.381-1.984-1.051-3.86-3.215-4.188c-0.538-0.075-1.061-0.07-1.546,0.073
			c-0.487,0.16-0.93,0.407-1.306,0.721c-0.738,0.615-1.205,1.49-1.282,2.478c-0.004,0-0.008-0.001-0.012-0.001
			c0.109-2-1.531-3.702-3.702-3.806c-2.171,0.103-3.811,1.806-3.702,3.806c-0.004,0-0.008,0.001-0.012,0.001
			c-0.077-0.989-0.544-1.864-1.282-2.478c-0.376-0.314-0.82-0.56-1.306-0.721c-0.485-0.143-1.008-0.148-1.546-0.073
			c-2.164,0.328-3.596,2.205-3.215,4.188c-0.002,0-0.003,0.001-0.005,0.001c-0.191-0.984-0.774-1.83-1.592-2.35
			c-0.812-0.479-1.862-0.636-2.917-0.364c-2.127,0.541-3.324,2.556-2.674,4.53c-0.001,0-0.001,0.001-0.002,0.001
			c-0.605-1.933-2.761-2.895-4.82-2.137c-1.029,0.361-1.789,1.101-2.137,2.042c-0.356,0.897-0.348,1.894,0.06,2.802
			c-0.003,0.001-0.006,0.003-0.009,0.004c-0.854-1.817-3.114-2.53-5.073-1.577c-1.865,1.127-2.494,3.411-1.433,5.116
			c-0.003,0.002-0.005,0.003-0.008,0.005c-1.051-1.665-3.49-2.257-5.194-0.893c-1.758,1.312-2.125,3.644-0.83,5.205l-0.001,0.001
			c-1.301-1.624-3.632-1.704-5.257-0.231c-0.799,0.738-1.261,1.681-1.277,2.649c0,0.977,0.375,1.915,1.096,2.614
			c-0.001,0.001-0.003,0.003-0.004,0.004c-1.454-1.399-3.813-1.234-5.28,0.386c-1.414,1.645-1.089,4.066,0.484,5.258
			c-0.003,0.004-0.005,0.007-0.008,0.011c-0.804-0.578-1.768-0.784-2.708-0.614c-0.946,0.181-1.931,0.702-2.464,1.654
			c-1.14,1.867-0.628,4.175,1.131,5.167c-0.001,0.002-0.002,0.003-0.003,0.005c-0.877-0.492-1.885-0.585-2.825-0.306
			c-0.897,0.306-1.689,1.009-2.164,1.988c-0.957,1.974-0.199,4.189,1.728,4.971c0,0.001-0.001,0.001-0.001,0.002
			c-1.866-0.79-3.994,0.232-4.747,2.293c-0.386,1.019-0.321,2.075,0.174,2.95c0.455,0.852,1.221,1.491,2.178,1.767
			c-0.001,0.003-0.002,0.007-0.003,0.01c-1.939-0.523-3.94,0.74-4.478,2.852c-0.364,2.144,0.993,4.101,2.969,4.397
			c0,0.004-0.001,0.008-0.001,0.012c-0.984-0.125-1.935,0.155-2.686,0.754c-0.78,0.608-1.333,1.543-1.354,2.632
			c-0.114,2.183,1.435,3.965,3.453,3.996c0,0.002,0,0.004,0,0.006c-1.005-0.012-1.936,0.387-2.629,1.081
			c-0.67,0.674-1.079,1.599-1.08,2.624c0,2.048,1.647,3.709,3.68,3.709c0,0,0,0,0.001,0v0c0,0-0.001,0-0.001,0
			c-2.033,0-3.68,1.661-3.68,3.709s1.647,3.709,3.68,3.709c0,0,0,0,0.001,0v0c0,0-0.001,0-0.001,0c-2.033,0-3.68,1.66-3.68,3.709
			c0,2.049,1.647,3.709,3.68,3.709c0,0,0,0,0.001,0v0c0,0-0.001,0-0.001,0c-2.033,0-3.68,1.66-3.68,3.709s1.647,3.709,3.68,3.709
			c0,0,0,0,0.001,0v0c0,0-0.001,0-0.001,0c-2.033,0-3.68,1.661-3.68,3.709s1.647,3.709,3.68,3.709c0,0,0,0,0.001,0v0
			c0,0-0.001,0-0.001,0c-2.033,0-3.68,1.661-3.68,3.709s1.647,3.709,3.68,3.709c0,0,0,0,0.001,0v0c0,0-0.001,0-0.001,0
			c-2.033,0-3.68,1.661-3.68,3.709s1.647,3.709,3.68,3.709c0,0,0,0,0.001,0v0h22.977v0c2.032,0,3.679-1.621,3.679-3.619
			c0-1.999-1.647-3.619-3.679-3.619v0c2.032,0,3.679-1.62,3.679-3.619c0-1.999-1.647-3.619-3.679-3.619v0
			c2.032,0,3.679-1.62,3.679-3.619c0-1.999-1.647-3.619-3.679-3.619v0c2.032,0,3.679-1.62,3.679-3.619
			c0-1.999-1.647-3.619-3.679-3.619v0c2.032,0,3.679-1.621,3.679-3.619s-1.647-3.619-3.679-3.619v0c2.032,0,3.679-1.62,3.679-3.619
			c0-1.999-1.647-3.619-3.679-3.619v0c2.032,0,3.679-1.621,3.679-3.619c0-1.999-1.647-3.619-3.679-3.619v0
			c2.018-0.044,3.761-1.506,3.839-3.269c0.223-1.746-1.144-3.5-3.144-3.926c-0.003-0.001-0.006,0-0.008-0.001l0-0.002
			c0.003,0,0.005,0.002,0.008,0.002c1.947,0.342,3.968-0.744,4.393-2.452c0.548-1.671-0.433-3.655-2.313-4.469
			c-0.002-0.001-0.005-0.001-0.008-0.002l0-0.001c0.003,0.001,0.005,0.003,0.007,0.004c1.842,0.72,4.036,0.052,4.788-1.541
			c0.875-1.528,0.29-3.674-1.392-4.838c-0.001-0.001-0.003-0.001-0.005-0.002c0,0,0-0.001,0-0.001
			c0.002,0.001,0.003,0.002,0.004,0.003c1.673,1.073,3.955,0.844,4.997-0.579c1.172-1.317,0.995-3.555-0.424-5.018l-0.001-0.001l0,0
			c0,0,0,0.001,0,0.001c1.457,1.401,3.716,1.595,5.016,0.402c1.421-1.046,1.654-3.309,0.562-4.999c0-0.001-0.001-0.001-0.001-0.002
			c0,0,0,0,0,0c0,0,0.001,0.001,0.001,0.002c1.167,1.672,3.327,2.271,4.844,1.374c1.594-0.749,2.256-2.943,1.524-4.794
			c-0.001-0.002-0.002-0.003-0.003-0.005c0,0,0.001,0,0.001,0c0.001,0.001,0.001,0.003,0.002,0.005
			c0.819,1.871,2.814,2.869,4.477,2.296c1.709-0.422,2.789-2.445,2.437-4.402c0-0.002-0.001-0.003-0.001-0.005l0.001,0
			c0.001,0.002,0,0.004,0.001,0.005c0.433,1.992,2.195,3.378,3.938,3.129c1.763-0.08,3.22-1.814,3.256-3.846l0,0
			c0.036,2.032,1.493,3.765,3.256,3.846c1.743,0.249,3.505-1.137,3.938-3.129c0-0.002,0-0.004,0-0.006c0,0,0.001,0,0.001,0
			c0,0.002-0.001,0.004-0.001,0.006c-0.352,1.957,0.728,3.98,2.437,4.402c1.664,0.572,3.659-0.425,4.477-2.296
			c0.001-0.002,0.001-0.004,0.002-0.005c0,0,0,0,0,0c0,0.002-0.001,0.003-0.002,0.005c-0.732,1.851-0.07,4.045,1.524,4.794
			c1.516,0.897,3.676,0.298,4.843-1.374c0-0.001,0.001-0.002,0.001-0.002l0,0c0,0.001-0.001,0.001-0.002,0.002
			c-1.093,1.691-0.859,3.953,0.562,4.999c1.3,1.193,3.56,0.999,5.016-0.402c0.001,0,0.001-0.001,0.001-0.001l0,0
			c0,0-0.001,0.001-0.001,0.001c-1.419,1.464-1.596,3.701-0.424,5.018c1.042,1.423,3.324,1.652,4.997,0.579
			c0.002-0.001,0.003-0.003,0.005-0.004c0,0,0,0,0,0c-0.002,0.002-0.003,0.002-0.005,0.003c-1.681,1.164-2.267,3.31-1.392,4.838
			c0.752,1.593,2.946,2.261,4.788,1.541c0.003-0.001,0.005-0.003,0.008-0.004c0,0.001,0,0.001,0,0.002
			c-0.003,0.001-0.006,0.001-0.009,0.003c-1.88,0.814-2.861,2.797-2.313,4.469c0.425,1.708,2.446,2.794,4.393,2.452
			c0.003-0.001,0.006-0.002,0.009-0.003c0,0.001,0,0.001,0,0.002c-0.003,0.001-0.006,0-0.009,0.001
			c-1.999,0.427-3.367,2.18-3.144,3.926c0.078,1.763,1.822,3.225,3.84,3.269c0,0,0,0,0,0l0,0c0,0,0,0-0.001,0
			c-2.032,0-3.68,1.62-3.68,3.619c0,1.999,1.648,3.619,3.68,3.619c0,0,0,0,0,0l0,0c0,0,0,0-0.001,0c-2.032,0-3.68,1.62-3.68,3.619
			c0,1.999,1.648,3.619,3.68,3.619c0,0,0,0,0,0l0,0c0,0,0,0-0.001,0c-2.032,0-3.68,1.62-3.68,3.619s1.648,3.619,3.68,3.619
			c0,0,0,0,0,0l0,0c0,0,0,0-0.001,0c-2.032,0-3.68,1.62-3.68,3.619c0,1.999,1.648,3.619,3.68,3.619c0,0,0,0,0,0l0,0c0,0,0,0-0.001,0
			c-2.032,0-3.68,1.62-3.68,3.619c0,1.999,1.648,3.619,3.68,3.619c0,0,0,0,0,0l0,0c0,0,0,0-0.001,0c-2.032,0-3.68,1.62-3.68,3.619
			c0,1.999,1.648,3.619,3.68,3.619c0,0,0,0,0,0l0,0c0,0,0,0-0.001,0c-2.032,0-3.68,1.62-3.68,3.619c0,1.999,1.648,3.619,3.68,3.619
			c0,0,0,0,0,0l0,0h22.977v0c2.032,0,3.679-1.661,3.679-3.709c0-2.048-1.647-3.709-3.679-3.709v0c2.032,0,3.679-1.661,3.679-3.709
			c0-2.048-1.647-3.709-3.679-3.709v0c2.032,0,3.679-1.661,3.679-3.709c0-2.048-1.647-3.708-3.679-3.709v0
			c2.032,0,3.679-1.661,3.679-3.709s-1.647-3.708-3.679-3.709v0c2.032,0,3.679-1.661,3.679-3.709c0-2.048-1.647-3.708-3.679-3.709v0
			C412.692,289.797,414.339,288.136,414.339,286.088z"/>
		<path style="fill:#FAFAFA;" d="M298.633,272.551c-0.431,0.431-0.686,0.967-0.779,1.525c-0.125-0.456-0.354-0.89-0.712-1.249
			c-1.098-1.098-2.172-0.391-3.27,0.707s-1.805,2.172-0.707,3.27c0.358,0.359,0.793,0.588,1.249,0.712
			c-0.558,0.093-1.094,0.349-1.525,0.779c-1.098,1.098-0.391,2.172,0.707,3.27c1.098,1.098,2.172,1.805,3.27,0.707
			c0.431-0.431,0.686-0.967,0.779-1.525c0.125,0.456,0.354,0.89,0.712,1.249c1.098,1.098,2.172,0.391,3.27-0.707
			s1.805-2.172,0.707-3.27c-0.359-0.359-0.793-0.588-1.249-0.712c0.558-0.093,1.094-0.349,1.525-0.779
			c1.098-1.098,0.391-2.172-0.707-3.27C300.805,272.16,299.731,271.453,298.633,272.551z"/>
		<path style="fill:#FAFAFA;" d="M323.985,223.029c-0.326,0.326-0.519,0.731-0.589,1.154c-0.094-0.345-0.268-0.674-0.539-0.945
			c-0.831-0.831-1.643-0.296-2.474,0.535c-0.831,0.831-1.366,1.643-0.535,2.474c0.271,0.271,0.599,0.445,0.945,0.539
			c-0.422,0.07-0.828,0.264-1.154,0.589c-0.831,0.831-0.296,1.643,0.535,2.474s1.643,1.366,2.474,0.535
			c0.326-0.326,0.519-0.731,0.589-1.154c0.094,0.345,0.268,0.673,0.539,0.945c0.831,0.831,1.643,0.296,2.474-0.535
			c0.831-0.831,1.366-1.643,0.535-2.474c-0.271-0.271-0.599-0.445-0.945-0.539c0.422-0.07,0.828-0.264,1.154-0.589
			c0.831-0.831,0.296-1.643-0.535-2.474C325.628,222.733,324.816,222.198,323.985,223.029z"/>
		<path style="fill:#F5F5F5;" d="M367.064,229.773c-0.326,0.326-0.519,0.731-0.589,1.154c-0.094-0.345-0.268-0.673-0.539-0.945
			c-0.831-0.831-1.643-0.296-2.474,0.535c-0.831,0.831-1.366,1.643-0.535,2.474c0.271,0.271,0.599,0.445,0.945,0.539
			c-0.422,0.07-0.828,0.264-1.154,0.589c-0.831,0.831-0.296,1.643,0.535,2.474c0.831,0.831,1.643,1.366,2.474,0.535
			c0.326-0.326,0.519-0.731,0.589-1.154c0.094,0.345,0.268,0.673,0.539,0.945c0.831,0.831,1.643,0.296,2.474-0.535
			c0.831-0.831,1.366-1.643,0.535-2.474c-0.271-0.271-0.6-0.445-0.945-0.539c0.422-0.07,0.828-0.264,1.154-0.589
			c0.831-0.831,0.296-1.643-0.535-2.474C368.707,229.477,367.895,228.942,367.064,229.773z"/>
		<path style="fill:#FAFAFA;" d="M396.679,291.964c-0.326,0.326-0.519,0.731-0.589,1.154c-0.094-0.345-0.268-0.673-0.539-0.945
			c-0.831-0.831-1.643-0.296-2.474,0.535c-0.831,0.831-1.366,1.643-0.535,2.474c0.271,0.271,0.599,0.445,0.945,0.539
			c-0.422,0.07-0.828,0.264-1.154,0.589c-0.831,0.831-0.296,1.643,0.535,2.474c0.831,0.831,1.643,1.366,2.474,0.535
			c0.326-0.326,0.519-0.731,0.589-1.154c0.094,0.345,0.268,0.673,0.539,0.945c0.831,0.831,1.643,0.296,2.474-0.535
			c0.831-0.831,1.366-1.643,0.535-2.474c-0.271-0.271-0.599-0.445-0.945-0.539c0.422-0.07,0.828-0.264,1.154-0.59
			c0.831-0.831,0.296-1.643-0.535-2.474C398.322,291.668,397.509,291.133,396.679,291.964z"/>
		<path style="fill:#F5F5F5;" d="M322.058,233.765c-0.246,0.247-0.393,0.553-0.446,0.873c-0.071-0.261-0.202-0.509-0.408-0.715
			c-0.628-0.628-1.243-0.224-1.871,0.405c-0.628,0.628-1.033,1.243-0.405,1.871c0.205,0.205,0.453,0.336,0.714,0.408
			c-0.319,0.053-0.626,0.199-0.873,0.446c-0.628,0.628-0.224,1.243,0.405,1.871c0.628,0.628,1.243,1.033,1.871,0.404
			c0.246-0.246,0.393-0.553,0.446-0.873c0.071,0.261,0.202,0.509,0.408,0.715c0.628,0.628,1.243,0.224,1.871-0.405
			s1.033-1.243,0.405-1.871c-0.205-0.205-0.453-0.336-0.715-0.408c0.319-0.053,0.626-0.199,0.873-0.446
			c0.628-0.628,0.224-1.243-0.405-1.871C323.301,233.541,322.687,233.137,322.058,233.765z"/>
		<path style="fill:#FAFAFA;" d="M404.481,306.215c-0.246,0.246-0.393,0.553-0.446,0.873c-0.071-0.261-0.202-0.509-0.408-0.715
			c-0.628-0.628-1.243-0.224-1.871,0.405c-0.628,0.628-1.033,1.243-0.405,1.871c0.205,0.205,0.453,0.336,0.715,0.408
			c-0.319,0.053-0.626,0.199-0.873,0.446c-0.628,0.628-0.224,1.243,0.405,1.871c0.628,0.628,1.243,1.033,1.871,0.405
			c0.247-0.246,0.393-0.553,0.446-0.873c0.071,0.261,0.202,0.509,0.408,0.715c0.628,0.628,1.243,0.224,1.871-0.405
			c0.628-0.628,1.033-1.243,0.405-1.871c-0.205-0.205-0.453-0.336-0.715-0.408c0.319-0.053,0.626-0.199,0.873-0.446
			c0.628-0.628,0.224-1.243-0.404-1.871C405.723,305.991,405.109,305.586,404.481,306.215z"/>
		<path style="fill:#FAFAFA;" d="M393.419,258.469c-0.246,0.246-0.393,0.553-0.446,0.873c-0.071-0.261-0.203-0.509-0.408-0.715
			c-0.628-0.628-1.243-0.224-1.871,0.405c-0.628,0.628-1.033,1.243-0.404,1.871c0.205,0.205,0.453,0.336,0.714,0.408
			c-0.319,0.053-0.626,0.199-0.873,0.446c-0.628,0.628-0.224,1.243,0.405,1.871c0.628,0.628,1.243,1.033,1.871,0.405
			c0.246-0.246,0.393-0.553,0.446-0.873c0.071,0.261,0.202,0.509,0.408,0.715c0.628,0.628,1.243,0.224,1.871-0.405
			c0.628-0.628,1.033-1.243,0.405-1.871c-0.205-0.205-0.453-0.336-0.715-0.408c0.319-0.053,0.626-0.199,0.872-0.446
			c0.628-0.628,0.224-1.243-0.405-1.871C394.662,258.245,394.048,257.84,393.419,258.469z"/>
		<path style="fill:#FAFAFA;" d="M404.481,261.565c-0.246,0.246-0.393,0.553-0.446,0.873c-0.071-0.261-0.202-0.509-0.408-0.715
			c-0.628-0.628-1.243-0.224-1.871,0.405c-0.628,0.628-1.033,1.243-0.405,1.871c0.205,0.205,0.453,0.336,0.715,0.408
			c-0.319,0.053-0.626,0.199-0.873,0.446c-0.628,0.628-0.224,1.243,0.405,1.871c0.628,0.628,1.243,1.033,1.871,0.405
			c0.247-0.246,0.393-0.553,0.446-0.873c0.071,0.261,0.202,0.509,0.408,0.714c0.628,0.628,1.243,0.224,1.871-0.404
			c0.628-0.628,1.033-1.243,0.405-1.871c-0.205-0.205-0.453-0.336-0.715-0.408c0.319-0.053,0.626-0.199,0.873-0.446
			c0.628-0.628,0.224-1.243-0.404-1.871C405.723,261.341,405.109,260.937,404.481,261.565z"/>
		<path style="fill:#FAFAFA;" d="M378.725,228.018c-0.247,0.246-0.393,0.553-0.446,0.873c-0.071-0.261-0.202-0.51-0.408-0.715
			c-0.628-0.628-1.243-0.224-1.871,0.405c-0.628,0.628-1.033,1.243-0.405,1.871c0.205,0.205,0.453,0.336,0.715,0.408
			c-0.319,0.053-0.626,0.199-0.873,0.446c-0.628,0.628-0.224,1.243,0.405,1.871c0.628,0.628,1.243,1.033,1.871,0.405
			c0.246-0.246,0.393-0.553,0.446-0.873c0.071,0.261,0.202,0.509,0.408,0.714c0.629,0.628,1.243,0.224,1.871-0.404
			c0.628-0.628,1.033-1.243,0.405-1.871c-0.205-0.205-0.453-0.336-0.715-0.408c0.319-0.053,0.626-0.199,0.873-0.446
			c0.628-0.628,0.224-1.243-0.405-1.871C379.968,227.794,379.353,227.389,378.725,228.018z"/>
		<path style="fill:#FAFAFA;" d="M337.295,222.485c-0.186,0.186-0.297,0.418-0.337,0.66c-0.054-0.197-0.153-0.385-0.308-0.54
			c-0.475-0.475-0.94-0.169-1.415,0.306c-0.475,0.475-0.781,0.94-0.306,1.415c0.155,0.155,0.343,0.254,0.54,0.308
			c-0.242,0.04-0.474,0.151-0.66,0.337c-0.475,0.475-0.169,0.94,0.306,1.415c0.475,0.475,0.94,0.781,1.415,0.306
			c0.186-0.186,0.297-0.418,0.337-0.66c0.054,0.198,0.153,0.385,0.308,0.54c0.475,0.475,0.94,0.169,1.415-0.306
			c0.475-0.475,0.781-0.94,0.306-1.415c-0.155-0.155-0.343-0.254-0.54-0.308c0.242-0.04,0.474-0.151,0.66-0.337
			c0.475-0.475,0.169-0.94-0.306-1.415C338.235,222.316,337.771,222.01,337.295,222.485z"/>
		<path style="fill:#E0E0E0;" d="M295.598,262.321c-0.18,0.18-0.286,0.403-0.325,0.635c-0.052-0.19-0.147-0.371-0.297-0.52
			c-0.458-0.458-0.905-0.163-1.363,0.295c-0.458,0.458-0.752,0.905-0.295,1.363c0.149,0.149,0.33,0.245,0.52,0.297
			c-0.233,0.039-0.456,0.145-0.635,0.325c-0.458,0.458-0.163,0.905,0.295,1.363c0.458,0.458,0.905,0.752,1.363,0.295
			c0.179-0.179,0.286-0.403,0.325-0.635c0.052,0.19,0.147,0.371,0.297,0.52c0.458,0.458,0.905,0.163,1.363-0.295
			c0.458-0.458,0.752-0.905,0.295-1.363c-0.149-0.149-0.33-0.245-0.52-0.297c0.233-0.039,0.456-0.145,0.635-0.325
			c0.458-0.458,0.163-0.905-0.295-1.363C296.503,262.158,296.056,261.863,295.598,262.321z"/>
		<path style="fill:#FAFAFA;" d="M311.728,312.897c-0.179,0.179-0.286,0.403-0.325,0.635c-0.052-0.19-0.147-0.371-0.297-0.52
			c-0.458-0.458-0.905-0.163-1.363,0.295c-0.458,0.458-0.752,0.905-0.295,1.363c0.149,0.149,0.33,0.245,0.52,0.297
			c-0.233,0.039-0.456,0.145-0.635,0.325c-0.458,0.458-0.163,0.905,0.295,1.363c0.458,0.458,0.905,0.752,1.363,0.295
			c0.18-0.18,0.286-0.403,0.325-0.635c0.052,0.19,0.147,0.371,0.297,0.52c0.458,0.458,0.905,0.163,1.363-0.295
			c0.458-0.458,0.752-0.905,0.295-1.363c-0.149-0.149-0.33-0.245-0.52-0.297c0.233-0.039,0.456-0.145,0.635-0.325
			c0.458-0.458,0.163-0.905-0.295-1.363C312.633,312.733,312.185,312.439,311.728,312.897z"/>
		<path style="fill:#E0E0E0;" d="M307.159,286.04c-0.18,0.179-0.286,0.403-0.325,0.635c-0.052-0.19-0.147-0.371-0.297-0.52
			c-0.458-0.458-0.905-0.163-1.363,0.295c-0.458,0.458-0.752,0.905-0.295,1.363c0.149,0.149,0.33,0.245,0.52,0.297
			c-0.233,0.039-0.456,0.145-0.635,0.325c-0.458,0.458-0.163,0.905,0.295,1.363c0.458,0.458,0.905,0.752,1.363,0.295
			c0.18-0.18,0.286-0.403,0.325-0.635c0.052,0.19,0.147,0.371,0.297,0.52c0.458,0.458,0.905,0.163,1.363-0.295
			c0.458-0.458,0.752-0.905,0.295-1.363c-0.149-0.149-0.33-0.245-0.52-0.297c0.233-0.039,0.456-0.145,0.635-0.325
			c0.458-0.458,0.163-0.905-0.295-1.363C308.064,285.877,307.616,285.583,307.159,286.04z"/>
		<path style="fill:#FAFAFA;" d="M358.794,220.587c-0.18,0.179-0.286,0.403-0.325,0.635c-0.052-0.19-0.147-0.371-0.297-0.52
			c-0.458-0.458-0.905-0.163-1.363,0.295c-0.458,0.458-0.752,0.905-0.295,1.363c0.149,0.149,0.33,0.245,0.52,0.297
			c-0.233,0.039-0.456,0.145-0.635,0.325c-0.458,0.458-0.163,0.905,0.295,1.363c0.458,0.458,0.905,0.752,1.363,0.295
			c0.18-0.179,0.286-0.403,0.325-0.635c0.052,0.19,0.147,0.371,0.297,0.52c0.458,0.458,0.905,0.163,1.363-0.295
			c0.458-0.458,0.752-0.905,0.295-1.363c-0.149-0.149-0.33-0.245-0.52-0.297c0.233-0.039,0.456-0.145,0.635-0.325
			c0.458-0.458,0.163-0.905-0.295-1.363C359.699,220.424,359.252,220.129,358.794,220.587z"/>
		<path style="fill:#E0E0E0;" d="M401.247,275.387c-0.18,0.179-0.286,0.403-0.325,0.635c-0.052-0.19-0.147-0.371-0.297-0.52
			c-0.458-0.458-0.905-0.163-1.363,0.295c-0.458,0.458-0.752,0.905-0.295,1.363c0.149,0.149,0.33,0.245,0.52,0.297
			c-0.233,0.039-0.456,0.145-0.635,0.325c-0.458,0.458-0.163,0.905,0.295,1.363c0.458,0.458,0.905,0.752,1.363,0.295
			c0.18-0.18,0.286-0.403,0.325-0.635c0.052,0.19,0.147,0.371,0.297,0.52c0.458,0.458,0.905,0.163,1.363-0.295
			c0.458-0.458,0.752-0.905,0.295-1.363c-0.149-0.149-0.33-0.245-0.52-0.297c0.233-0.039,0.456-0.145,0.635-0.325
			c0.458-0.458,0.163-0.905-0.295-1.363C402.152,275.224,401.704,274.929,401.247,275.387z"/>
		<path style="fill:#F5F5F5;" d="M309.71,303.694c-0.179,0.179-0.286,0.403-0.325,0.635c-0.052-0.19-0.147-0.371-0.297-0.52
			c-0.458-0.458-0.905-0.163-1.363,0.295c-0.458,0.458-0.752,0.905-0.295,1.363c0.149,0.149,0.33,0.245,0.52,0.297
			c-0.233,0.039-0.456,0.145-0.635,0.325c-0.458,0.458-0.163,0.905,0.295,1.363c0.458,0.458,0.905,0.752,1.363,0.295
			c0.179-0.18,0.286-0.403,0.325-0.635c0.052,0.19,0.148,0.371,0.297,0.52c0.458,0.458,0.905,0.163,1.363-0.295
			c0.458-0.458,0.752-0.905,0.295-1.363c-0.149-0.149-0.33-0.245-0.52-0.297c0.233-0.039,0.456-0.145,0.635-0.325
			c0.458-0.458,0.163-0.905-0.295-1.363C310.615,303.531,310.168,303.236,309.71,303.694z"/>
	</g>
	<g>
		<g>
			<path style="fill:#F0F0F0;" d="M72.417,129.49c-0.454-0.676-0.372-3.26-0.372-3.26h-2.883c0,0,0.082,2.583-0.372,3.26
				c-0.837,1.247-1.999,1.933-1.999,3.529c0,2.106,1.707,3.813,3.813,3.813s3.813-1.707,3.813-3.813
				C74.416,131.424,73.255,130.738,72.417,129.49z"/>
			<path style="fill:#E6E6E6;" d="M72.045,125.719h-2.883l0,0c0-0.565,0.458-1.023,1.023-1.023h0.837
				C71.587,124.697,72.045,125.155,72.045,125.719L72.045,125.719z"/>
		</g>
		<g>
			<path style="fill:#F5F5F5;" d="M110.858,127.405c-0.484-0.656-0.518-3.24-0.518-3.24l-2.88,0.129c0,0,0.198,2.577-0.225,3.273
				c-0.781,1.284-1.911,2.021-1.839,3.615c0.094,2.104,1.876,3.732,3.98,3.638c2.103-0.094,3.732-1.876,3.638-3.98
				C112.942,129.246,111.751,128.613,110.858,127.405z"/>
			<path style="fill:#E6E6E6;" d="M110.317,123.654l-2.88,0.129l0,0c-0.025-0.564,0.412-1.042,0.976-1.068l0.836-0.037
				C109.814,122.653,110.292,123.09,110.317,123.654L110.317,123.654z"/>
		</g>
		<g>
			<path style="fill:#FAFAFA;" d="M154.37,119.529c-0.615-0.534-1.211-3.049-1.211-3.049l-2.783,0.753c0,0,0.754,2.472,0.493,3.244
				c-0.483,1.423-1.425,2.389-1.008,3.928c0.55,2.032,2.644,3.234,4.676,2.684c2.033-0.55,3.234-2.644,2.684-4.676
				C156.805,120.873,155.505,120.515,154.37,119.529z"/>
			<path style="fill:#E6E6E6;" d="M153.026,115.986l-2.783,0.753l0,0c-0.148-0.545,0.175-1.107,0.72-1.255l0.808-0.219
				C152.317,115.119,152.879,115.441,153.026,115.986L153.026,115.986z"/>
		</g>
		<g>
			<path style="fill:#F5F5F5;" d="M193.86,106.42c-0.701-0.415-1.74-2.781-1.74-2.781l-2.602,1.242c0,0,1.187,2.296,1.068,3.102
				c-0.219,1.486-0.972,2.606-0.285,4.046c0.907,1.9,3.182,2.706,5.083,1.799c1.9-0.907,2.706-3.183,1.799-5.083
				C196.497,107.304,195.153,107.185,193.86,106.42z"/>
			<path style="fill:#E6E6E6;" d="M191.9,103.177l-2.602,1.242l0,0c-0.243-0.51-0.027-1.12,0.483-1.364l0.755-0.36
				C191.046,102.451,191.657,102.667,191.9,103.177L191.9,103.177z"/>
		</g>
		<g>
			<path style="fill:#F0F0F0;" d="M228.682,88.276c-0.757-0.302-2.146-2.482-2.146-2.482l-2.38,1.626c0,0,1.525,2.086,1.531,2.901
				c0.012,1.502-0.56,2.724,0.339,4.041c1.188,1.739,3.56,2.185,5.299,0.998c1.739-1.188,2.185-3.56,0.998-5.299
				C231.423,88.745,230.077,88.834,228.682,88.276z"/>
			<path style="fill:#E6E6E6;" d="M226.247,85.372l-2.38,1.626l0,0c-0.319-0.466-0.199-1.103,0.268-1.422l0.691-0.472
				C225.292,84.786,225.929,84.906,226.247,85.372L226.247,85.372z"/>
		</g>
		<path style="fill:#EBEBEB;" d="M257.235,60.512c-78.939,65.449-184.558,64.342-213.694,62.623v0.085
			C172.83,133.542,243.564,73.845,257.42,60.74L257.235,60.512z"/>
	</g>
	<g>
		<g>
			<path style="fill:#FAFAFA;" d="M250.665,78.991c-0.14-0.825,1.028-3.209,1.028-3.209l-2.699-1.217c0,0-1.014,2.453-1.725,2.894
				c-1.311,0.814-2.688,0.965-3.361,2.459c-0.889,1.971-0.012,4.29,1.959,5.179c1.971,0.889,4.29,0.012,5.179-1.959
				C251.72,81.645,250.923,80.512,250.665,78.991z"/>
			<path style="fill:#E6E6E6;" d="M251.91,75.304l-2.699-1.217l0.011-0.025c0.232-0.515,0.838-0.744,1.353-0.512l0.834,0.376
				c0.515,0.232,0.744,0.838,0.512,1.353L251.91,75.304z"/>
		</g>
		<g>
			<path style="fill:#F5F5F5;" d="M287.532,93.271c-0.176-0.818,0.883-3.251,0.883-3.251l-2.75-1.095c0,0-0.903,2.496-1.593,2.969
				c-1.273,0.872-2.642,1.085-3.248,2.607c-0.8,2.009,0.18,4.286,2.189,5.086c2.009,0.8,4.286-0.18,5.086-2.189
				C288.705,95.876,287.857,94.78,287.532,93.271z"/>
			<path style="fill:#E6E6E6;" d="M288.609,89.532l-2.75-1.095l0.01-0.026c0.209-0.525,0.804-0.781,1.329-0.572l0.85,0.338
				c0.525,0.209,0.781,0.804,0.572,1.329L288.609,89.532z"/>
		</g>
		<g>
			<path style="fill:#F0F0F0;" d="M331.59,104.274c-0.35-0.76,0.154-3.366,0.154-3.366l-2.923-0.47c0,0-0.338,2.632-0.909,3.244
				c-1.053,1.128-2.342,1.634-2.602,3.252c-0.343,2.135,1.109,4.144,3.244,4.487c2.135,0.343,4.144-1.109,4.487-3.244
				C333.302,106.56,332.236,105.675,331.59,104.274z"/>
			<path style="fill:#E6E6E6;" d="M331.828,100.39l-2.923-0.47l0.004-0.027c0.09-0.558,0.615-0.937,1.172-0.848l0.903,0.145
				c0.558,0.09,0.937,0.615,0.848,1.172L331.828,100.39z"/>
		</g>
		<g>
			<path style="fill:#FAFAFA;" d="M374.093,108.678c-0.481-0.685-0.454-3.339-0.454-3.339l-2.96,0.064c0,0,0.142,2.65-0.31,3.355
				c-0.832,1.299-2.01,2.029-1.975,3.667c0.047,2.162,1.837,3.877,3.999,3.83c2.162-0.046,3.877-1.837,3.83-3.999
				C376.189,110.619,374.981,109.94,374.093,108.678z"/>
			<path style="fill:#E6E6E6;" d="M373.628,104.814l-2.96,0.064l-0.001-0.027c-0.012-0.565,0.436-1.033,1.001-1.045l0.914-0.02
				c0.565-0.012,1.033,0.436,1.045,1.001L373.628,104.814z"/>
		</g>
		<g>
			<path style="fill:#F5F5F5;" d="M414.352,106.397c-0.581-0.603-0.961-3.229-0.961-3.229l-2.915,0.517c0,0,0.546,2.597,0.208,3.363
				c-0.623,1.411-1.675,2.313-1.389,3.926c0.378,2.129,2.41,3.549,4.539,3.172c2.129-0.378,3.549-2.41,3.172-4.539
				C416.721,107.994,415.423,107.509,414.352,106.397z"/>
			<path style="fill:#E6E6E6;" d="M413.3,102.651l-2.915,0.517l-0.005-0.027c-0.099-0.556,0.272-1.087,0.829-1.186l0.901-0.16
				c0.556-0.099,1.087,0.272,1.186,0.829L413.3,102.651z"/>
		</g>
		<path style="fill:#E6E6E6;" d="M452.807,92.465c-101.535,27.934-199.94-17.704-226.489-31.617l-0.036,0.08
			c116.671,64.259,208.097,38.246,226.602,31.828L452.807,92.465z"/>
	</g>
</g>
<g id="Background_Simple" style="display:none;">
	<g style="display:inline;">
		<path style="fill:#407BFF;" d="M97.67,149.334c40.907-10.594,98.898,75.383,138.986,62.02
			c37.637-12.545,35.828-100.619,68.573-123.018c23.379-15.992,74.538-4.235,107.096,36.979
			c31.068,39.327,59.726,167.753,20.851,199.384c-29.553,24.046-115.289-36.801-150.693-22.726
			c-16.93,6.731-71.745,94.524-124.649,100.362c-53.002,5.849-105.317-33.847-113.238-89.609
			C32.888,230.309,56.092,160.101,97.67,149.334z"/>
		<path style="opacity:0.9;fill:#FFFFFF;" d="M97.67,149.334c40.907-10.594,98.898,75.383,138.986,62.02
			c37.637-12.545,35.828-100.619,68.573-123.018c23.379-15.992,74.538-4.235,107.096,36.979
			c31.068,39.327,59.726,167.753,20.851,199.384c-29.553,24.046-115.289-36.801-150.693-22.726
			c-16.93,6.731-71.745,94.524-124.649,100.362c-53.002,5.849-105.317-33.847-113.238-89.609
			C32.888,230.309,56.092,160.101,97.67,149.334z"/>
	</g>
</g>
<g id="Shadow">
	<ellipse id="_x3C_Path_x3E__1_" style="fill:#F5F5F5;" cx="245.178" cy="412.391" rx="193.889" ry="11.323"/>
</g>
<g id="Dress">
	<g>
		<g>
			<path style="fill:#263238;" d="M280.289,410.992c0.803,0,1.039-1.093,0.304-1.418c-5.013-2.214-14.103-6.604-16.104-10.118
				c-4.006-7.034-2.896-32.381-2.896-32.381h-5.147c0,0,1.11,25.346-2.896,32.381c-2.001,3.514-11.092,7.904-16.104,10.118
				c-0.734,0.324-0.499,1.418,0.304,1.418H280.289z"/>
			<path style="opacity:0.8;fill:#FFFFFF;" d="M280.289,410.992c0.803,0,1.039-1.093,0.304-1.418
				c-5.013-2.214-14.103-6.604-16.104-10.118c-4.006-7.034-2.896-32.381-2.896-32.381h-5.147c0,0,1.11,25.346-2.896,32.381
				c-2.001,3.514-11.092,7.904-16.104,10.118c-0.734,0.324-0.499,1.418,0.304,1.418H280.289z"/>
		</g>
		<g>
			<g>
				<path style="fill:#263238;" d="M264.725,180.481c-1.768-2.316-1.551-11.552-1.551-11.552h-2.172h-3.964h-2.172
					c0,0,0.217,9.236-1.551,11.552c-2.249,2.946-13.652,5.777-13.652,5.777l10.704,6.096h6.671h3.964h6.671l10.704-6.096
					C278.377,186.258,266.974,183.427,264.725,180.481z"/>
				<path style="opacity:0.8;fill:#FFFFFF;" d="M264.725,180.481c-1.768-2.316-1.551-11.552-1.551-11.552h-2.172h-3.964h-2.172
					c0,0,0.217,9.236-1.551,11.552c-2.249,2.946-13.652,5.777-13.652,5.777l10.704,6.096h6.671h3.964h6.671l10.704-6.096
					C278.377,186.258,266.974,183.427,264.725,180.481z"/>
			</g>
			<path style="fill:#263238;" d="M269.37,160.155c0,9.273-3.908,16.79-10.35,16.79c-6.442,0-10.35-7.517-10.35-16.79
				c0-9.273,3.908-14.161,10.35-14.161C265.462,145.994,269.37,150.883,269.37,160.155z"/>
			<path style="opacity:0.9;fill:#FFFFFF;" d="M269.37,160.155c0,9.273-3.908,16.79-10.35,16.79c-6.442,0-10.35-7.517-10.35-16.79
				c0-9.273,3.908-14.161,10.35-14.161C265.462,145.994,269.37,150.883,269.37,160.155z"/>
			<path style="opacity:0.1;" d="M260.051,174.301c-6.556,0-10.718-7.084-11.303-16.222c-0.047,0.669-0.079,1.354-0.079,2.076
				c0,9.273,3.908,16.79,10.35,16.79c3.807,0,6.719-2.637,8.473-6.698C265.6,172.779,263.083,174.301,260.051,174.301z"/>
		</g>
		<g>
			<path style="fill:#407BFF;" d="M259.525,381.527c10.82,3.512,17.357-0.807,17.357-0.807c14.878,2.705,18.259-2.254,18.259-2.254
				c11.046,1.353,14.967-4.734,14.967-4.734c-0.902-22.091-2.786-44.297-2.786-44.297l-47.797,8.229l-47.797-8.229
				c0,0-1.885,22.206-2.787,44.297c0,0,3.921,6.086,14.967,4.734c0,0,3.381,4.959,18.259,2.254
				C242.167,380.72,248.705,385.04,259.525,381.527z"/>
			<path style="opacity:0.9;fill:#FFFFFF;" d="M259.525,381.527c10.82,3.512,17.357-0.807,17.357-0.807
				c14.878,2.705,18.259-2.254,18.259-2.254c11.046,1.353,14.967-4.734,14.967-4.734c-0.902-22.091-2.786-44.297-2.786-44.297
				l-47.797,8.229l-47.797-8.229c0,0-1.885,22.206-2.787,44.297c0,0,3.921,6.086,14.967,4.734c0,0,3.381,4.959,18.259,2.254
				C242.167,380.72,248.705,385.04,259.525,381.527z"/>
		</g>
		<g>
			<path style="fill:#407BFF;" d="M259.489,344.736c9.789,3.178,15.703-0.73,15.703-0.73c13.46,2.447,16.519-2.039,16.519-2.039
				c9.993,1.224,16.315-4.283,16.315-4.283c-0.816-19.986-5.296-40.075-5.296-40.075l-43.242,7.445l-43.242-7.445
				c0,0-4.48,20.089-5.296,40.075c0,0,6.322,5.506,16.315,4.283c0,0,3.059,4.487,16.519,2.039
				C243.786,344.005,249.7,347.913,259.489,344.736z"/>
			<path style="opacity:0.8;fill:#FFFFFF;" d="M259.489,344.736c9.789,3.178,15.703-0.73,15.703-0.73
				c13.46,2.447,16.519-2.039,16.519-2.039c9.993,1.224,16.315-4.283,16.315-4.283c-0.816-19.986-5.296-40.075-5.296-40.075
				l-43.242,7.445l-43.242-7.445c0,0-4.48,20.089-5.296,40.075c0,0,6.322,5.506,16.315,4.283c0,0,3.059,4.487,16.519,2.039
				C243.786,344.005,249.7,347.913,259.489,344.736z"/>
		</g>
		<g>
			<path style="fill:#407BFF;" d="M275.6,242.648h-16.111h-16.111c0,0-23.045,25.9-29.571,66.892c0,0,4.342,10.158,14.743,2
				c0,0,6.203,10.75,15.746,3c0,0,9.586,5.608,15.194,0c5.608,5.608,15.194-1,15.194-1c9.543,7.75,15.746-2,15.746-2
				c10.401,8.158,14.743-2,14.743-2C298.645,268.548,275.6,242.648,275.6,242.648z"/>
			<path style="opacity:0.7;fill:#FFFFFF;" d="M275.6,242.648h-16.111h-16.111c0,0-23.045,25.9-29.571,66.892
				c0,0,4.342,10.158,14.743,2c0,0,6.203,10.75,15.746,3c0,0,9.586,5.608,15.194,0c5.608,5.608,15.194-1,15.194-1
				c9.543,7.75,15.746-2,15.746-2c10.401,8.158,14.743-2,14.743-2C298.645,268.548,275.6,242.648,275.6,242.648z"/>
		</g>
		<g>
			<path style="fill:#407BFF;" d="M282.534,205.327c-1.637-11.458,0-18.762,0-18.762l-3.875-1.224
				c-6.934,5.71-14.224,4.895-19.17,4.895c-4.947,0-12.236,0.816-19.17-4.895l-3.875,1.224c0,0,1.637,7.304,0,18.762
				c-0.816,5.71-4.691,8.769,6.118,35.281h16.927h16.927C287.224,214.096,283.35,211.037,282.534,205.327z"/>
			<path style="opacity:0.7;fill:#FFFFFF;" d="M282.534,205.327c-1.637-11.458,0-18.762,0-18.762l-3.875-1.224
				c-6.934,5.71-14.224,4.895-19.17,4.895c-4.947,0-12.236,0.816-19.17-4.895l-3.875,1.224c0,0,1.637,7.304,0,18.762
				c-0.816,5.71-4.691,8.769,6.118,35.281h16.927h16.927C287.224,214.096,283.35,211.037,282.534,205.327z"/>
		</g>
		<path style="fill:#263238;" d="M259.489,243.803h17.641c0,0,0.816-1.49,0.816-2.039c0-0.549-0.816-2.039-0.816-2.039h-17.641
			h-17.641c0,0-0.816,1.49-0.816,2.039c0,0.549,0.816,2.039,0.816,2.039H259.489z"/>
		<path style="opacity:0.1;" d="M259.489,200.025c-5.293,0-15.703-9.993-20.598,4.895c0,0,8.417-8.051,18.838-1.275
			c1.07,0.696,2.45,0.696,3.52,0c10.421-6.776,18.838,1.275,18.838,1.275C275.192,190.032,264.782,200.025,259.489,200.025z"/>
		<g>
			<g>
				<path style="fill:#407BFF;" d="M253.955,189.667c1.484-1.425,4.294-2.06,5.566-0.735c1.273,1.325,0.526,4.107-0.958,5.532
					c-1.484,1.425-2.567,0.401-3.839-0.924C253.452,192.216,252.472,191.093,253.955,189.667z"/>
				<path style="opacity:0.2;" d="M253.955,189.667c1.484-1.425,4.294-2.06,5.566-0.735c1.273,1.325,0.526,4.107-0.958,5.532
					c-1.484,1.425-2.567,0.401-3.839-0.924C253.452,192.216,252.472,191.093,253.955,189.667z"/>
				<path style="fill:#407BFF;" d="M256.852,194.219c0,0-0.011-1.788-2.327-3.622C254.525,190.596,259.738,192.23,256.852,194.219z"
					/>
				<path style="fill:#407BFF;" d="M255.76,193.514c0,0-1.231-1.079-0.722-1.52c0,0-0.918-1.017-1.245-0.51
					C253.466,191.991,255.76,193.514,255.76,193.514z"/>
				<path style="opacity:0.4;" d="M256.852,194.219c0,0-0.011-1.788-2.327-3.622C254.525,190.596,259.738,192.23,256.852,194.219z"
					/>
				<path style="opacity:0.4;" d="M255.76,193.514c0,0-1.231-1.079-0.722-1.52c0,0-0.918-1.017-1.245-0.51
					C253.466,191.991,255.76,193.514,255.76,193.514z"/>
			</g>
			<g>
				<path style="fill:#407BFF;" d="M262.084,194.605c-1.46-1.449-2.162-4.243-0.868-5.547c1.294-1.304,4.093-0.624,5.554,0.825
					c1.46,1.449,0.462,2.556-0.832,3.86C264.644,195.047,263.544,196.054,262.084,194.605z"/>
				<path style="opacity:0.1;" d="M262.084,194.605c-1.46-1.449-2.162-4.243-0.868-5.547c1.294-1.304,4.093-0.624,5.554,0.825
					c1.46,1.449,0.462,2.556-0.832,3.86C264.644,195.047,263.544,196.054,262.084,194.605z"/>
				<path style="fill:#407BFF;" d="M266.565,191.601c0,0-1.787,0.054-3.566,2.413C262.999,194.014,264.508,188.763,266.565,191.601z
					"/>
				<path style="fill:#407BFF;" d="M265.887,192.709c0,0-1.049,1.257-1.502,0.758c0,0-0.995,0.943-0.48,1.257
					S265.887,192.709,265.887,192.709z"/>
				<path style="opacity:0.3;" d="M266.565,191.601c0,0-1.787,0.054-3.566,2.413C262.999,194.014,264.508,188.763,266.565,191.601z"
					/>
				<path style="opacity:0.3;" d="M265.887,192.709c0,0-1.049,1.257-1.502,0.758c0,0-0.995,0.943-0.48,1.257
					S265.887,192.709,265.887,192.709z"/>
			</g>
			<g>
				<path style="fill:#407BFF;" d="M257.002,193.188c0.261-2.041,2.052-4.298,3.874-4.064c1.822,0.233,2.986,2.869,2.725,4.909
					c-0.261,2.041-1.747,1.922-3.569,1.689C258.208,195.488,256.74,195.228,257.002,193.188z"/>
				<path style="fill:#407BFF;" d="M262.112,194.915c0,0-1.13-1.385-4.084-1.361C258.028,193.554,263.112,191.555,262.112,194.915z"
					/>
				<path style="fill:#407BFF;" d="M260.821,195.051c0,0-1.636-0.068-1.516-0.731c0,0-1.353-0.216-1.29,0.384
					C258.078,195.304,260.821,195.051,260.821,195.051z"/>
				<path style="opacity:0.2;" d="M262.112,194.915c0,0-1.13-1.385-4.084-1.361C258.028,193.554,263.112,191.555,262.112,194.915z"
					/>
				<path style="opacity:0.2;" d="M260.821,195.051c0,0-1.636-0.068-1.516-0.731c0,0-1.353-0.216-1.29,0.384
					C258.078,195.304,260.821,195.051,260.821,195.051z"/>
			</g>
		</g>
		<g>
			<g>
				<g>
					<path style="fill:#407BFF;" d="M241.361,232.79c1.735,1.81,2.504,5.235,0.888,6.784c-1.616,1.549-5.006,0.635-6.741-1.175
						c-1.735-1.81-0.485-3.128,1.131-4.677C238.256,232.173,239.626,230.98,241.361,232.79z"/>
					<path style="opacity:0.2;" d="M241.361,232.79c1.735,1.81,2.504,5.235,0.888,6.784c-1.616,1.549-5.006,0.635-6.741-1.175
						c-1.735-1.81-0.485-3.128,1.131-4.677C238.256,232.173,239.626,230.98,241.361,232.79z"/>
					<path style="fill:#407BFF;" d="M235.811,236.313c0,0,2.179-0.011,4.417-2.831C240.228,233.482,238.23,239.833,235.811,236.313z
						"/>
					<path style="fill:#407BFF;" d="M236.67,234.983c0,0,1.316-1.499,1.853-0.878c0,0,1.241-1.118,0.624-1.517
						C238.53,232.19,236.67,234.983,236.67,234.983z"/>
					<path style="opacity:0.4;" d="M235.811,236.313c0,0,2.179-0.011,4.417-2.831C240.228,233.482,238.23,239.833,235.811,236.313z"
						/>
					<path style="opacity:0.4;" d="M236.67,234.983c0,0,1.316-1.499,1.853-0.878c0,0,1.241-1.118,0.624-1.517
						C238.53,232.19,236.67,234.983,236.67,234.983z"/>
				</g>
				<g>
					<path style="fill:#407BFF;" d="M235.536,243.225c1.768-1.778,5.174-2.629,6.761-1.05c1.587,1.579,0.755,4.989-1.013,6.767
						c-1.768,1.778-3.116,0.56-4.703-1.019C234.994,246.344,233.768,245.002,235.536,243.225z"/>
					<path style="opacity:0.1;" d="M235.536,243.225c1.768-1.778,5.174-2.629,6.761-1.05c1.587,1.579,0.755,4.989-1.013,6.767
						c-1.768,1.778-3.116,0.56-4.703-1.019C234.994,246.344,233.768,245.002,235.536,243.225z"/>
					<path style="fill:#407BFF;" d="M239.191,248.689c0,0-0.063-2.178-2.935-4.348C236.256,244.34,242.652,246.186,239.191,248.689z
						"/>
					<path style="fill:#407BFF;" d="M237.842,247.861c0,0-1.53-1.28-0.922-1.832c0,0-1.147-1.214-1.531-0.587
						C235.004,246.069,237.842,247.861,237.842,247.861z"/>
					<path style="opacity:0.3;" d="M239.191,248.689c0,0-0.063-2.178-2.935-4.348C236.256,244.34,242.652,246.186,239.191,248.689z"
						/>
					<path style="opacity:0.3;" d="M237.842,247.861c0,0-1.53-1.28-0.922-1.832c0,0-1.147-1.214-1.531-0.587
						C235.004,246.069,237.842,247.861,237.842,247.861z"/>
				</g>
				<g>
					<path style="fill:#407BFF;" d="M236.169,236.693c2.486,0.321,5.234,2.506,4.948,4.726c-0.287,2.22-3.5,3.635-5.986,3.314
						c-2.486-0.321-2.34-2.132-2.053-4.352C233.364,238.16,233.683,236.372,236.169,236.693z"/>
					<path style="fill:#407BFF;" d="M234.057,242.918c0,0,1.69-1.376,1.664-4.975C235.721,237.943,238.149,244.142,234.057,242.918z
						"/>
					<path style="fill:#407BFF;" d="M233.893,241.344c0,0,0.085-1.993,0.892-1.846c0,0,0.265-1.649-0.466-1.572
						C233.588,238.002,233.893,241.344,233.893,241.344z"/>
					<path style="opacity:0.2;" d="M234.057,242.918c0,0,1.69-1.376,1.664-4.975C235.721,237.943,238.149,244.142,234.057,242.918z"
						/>
					<path style="opacity:0.2;" d="M233.893,241.344c0,0,0.085-1.993,0.892-1.846c0,0,0.265-1.649-0.466-1.572
						C233.588,238.002,233.893,241.344,233.893,241.344z"/>
				</g>
			</g>
			<g>
				<path style="fill:#407BFF;" d="M240.888,236.344c2.36,0.846,4.576,3.569,3.82,5.676c-0.756,2.107-4.197,2.801-6.557,1.954
					c-2.36-0.846-1.829-2.584-1.073-4.691C237.833,237.177,238.528,235.498,240.888,236.344z"/>
				<path style="opacity:0.1;" d="M240.888,236.344c2.36,0.846,4.576,3.569,3.82,5.676c-0.756,2.107-4.197,2.801-6.557,1.954
					c-2.36-0.846-1.829-2.584-1.073-4.691C237.833,237.177,238.528,235.498,240.888,236.344z"/>
				<path style="fill:#407BFF;" d="M237.491,241.973c0,0,1.945-0.982,2.692-4.503C240.183,237.469,241.226,244.044,237.491,241.973z
					"/>
				<path style="fill:#407BFF;" d="M237.667,240.4c0,0,0.51-1.929,1.267-1.612c0,0,0.612-1.554-0.118-1.636
					C238.086,237.07,237.667,240.4,237.667,240.4z"/>
				<path style="opacity:0.3;" d="M237.491,241.973c0,0,1.945-0.982,2.692-4.503C240.183,237.469,241.226,244.044,237.491,241.973z"
					/>
				<path style="opacity:0.3;" d="M237.667,240.4c0,0,0.51-1.929,1.267-1.612c0,0,0.612-1.554-0.118-1.636
					C238.086,237.07,237.667,240.4,237.667,240.4z"/>
			</g>
		</g>
	</g>
</g>
<g id="Cake">
	<g>
		<g>
			<g>
				<path style="fill:#407BFF;" d="M95.799,289.572v-21.439c0-1.618,1.311-2.929,2.929-2.929h44.017
					c1.618,0,2.929,1.311,2.929,2.929v21.439H95.799z"/>
				<path style="opacity:0.8;fill:#FFFFFF;" d="M95.799,289.572v-21.439c0-1.618,1.311-2.929,2.929-2.929h44.017
					c1.618,0,2.929,1.311,2.929,2.929v21.439H95.799z"/>
				<path style="fill:#407BFF;" d="M142.745,265.203H98.729c-1.618,0-2.929,1.311-2.929,2.929v3.799
					c0.836-1.486,2.264-3.223,4.385-3.223c3.789,0,2.73,3.884,7.011,3.884c4.263,0,2.937-3.895,5.4-3.895
					c2.558,0,1.699,2.658,4.263,2.658c2.653,0,2.081-2.666,4.263-2.666c2.463,0,2.937,3.618,5.969,3.618
					c2.938,0,2.41-3.622,4.358-3.622c1.895,0,2.555,2.664,4.642,2.664c2.653,0,2.179-2.71,5.768-2.71
					c1.944,0,3.034,0.733,3.817,2.206v-2.714C145.675,266.515,144.363,265.203,142.745,265.203z"/>
				<path style="opacity:0.3;fill:#FFFFFF;" d="M142.745,265.203H98.729c-1.618,0-2.929,1.311-2.929,2.929v3.799
					c0.836-1.486,2.264-3.223,4.385-3.223c3.789,0,2.73,3.884,7.011,3.884c4.263,0,2.937-3.895,5.4-3.895
					c2.558,0,1.699,2.658,4.263,2.658c2.653,0,2.081-2.666,4.263-2.666c2.463,0,2.937,3.618,5.969,3.618
					c2.938,0,2.41-3.622,4.358-3.622c1.895,0,2.555,2.664,4.642,2.664c2.653,0,2.179-2.71,5.768-2.71
					c1.944,0,3.034,0.733,3.817,2.206v-2.714C145.675,266.515,144.363,265.203,142.745,265.203z"/>
				<path style="fill:#FFFFFF;" d="M95.799,280.797c3.587-1.821,8.275-1.97,12.193-1.583c1.797,0.28,3.598,0.704,5.312,1.303
					c1.266,0.443,2.859,1.015,3.744,2.09c0.527,0.639,0.766,1.721,0.071,2.379c-0.865,0.819-2.996,0.079-1.834-1.273
					c0.38-0.442-0.261-1.088-0.643-0.643c-1.108,1.289-0.553,2.926,1.204,3.168c1.876,0.259,3.1-1.734,2.414-3.4
					c-0.23-0.558-0.604-1.04-1.069-1.467c1.199,0.225,2.376,0.306,3.49,0.094c1.252-0.238,2.187-0.778,2.455-2.088
					c0.467-2.282-2.064-5.814-4.287-6.315c-1.015-0.229-1.803,0.03-2.384,0.91c-1.632,2.472,1.43,4.347,3.398,4.837
					c0.568,0.141,0.81-0.736,0.242-0.877c-2.241-0.558-3.318-5.341-0.631-3.554c0.645,0.429,1.215,1.05,1.66,1.678
					c0.609,0.859,1.497,2.332,1.057,3.41c-0.871,2.13-4.531,0.857-6.065,0.455c-2.69-0.705-5.343-1.363-8.116-1.624
					c-0.015-0.002-0.032-0.005-0.046-0.007c-0.002,0-0.004,0.001-0.007,0c-0.036-0.003-0.07-0.01-0.106-0.013
					c-3.736-0.33-8.37-0.141-12.053,1.543V280.797z"/>
				<path style="fill:#FFFFFF;" d="M135.248,276.698c2.156,0.101,4.204,1.27,5.951,2.452c1.589,1.075,3.096,2.332,4.476,3.695
					v-1.263c-1.12-1.062-2.46-2.214-3.903-3.227c-0.775-1.116-1.61-2.56-1.579-3.902c0.023-1.004,1.458-2.147,2.198-1.069
					c0.367,0.534,0.312,2.064-0.594,1.376c-0.466-0.354-0.92,0.436-0.459,0.785c1.108,0.841,2.122-0.02,2.164-1.262
					c0.045-1.341-0.912-2.436-2.302-2.151c-2.616,0.537-2.058,3.134-1.079,5.159c-3.254-1.9-6.72-2.706-9.025,0.029
					c-1.989,2.359,0.847,5.687,3.473,5.683c3.736-0.006,3.051-3.848,0.034-4.589c-0.568-0.14-0.811,0.737-0.242,0.877
					c-0.123-0.03,1.391,3.743-1.158,2.424c-0.738-0.382-1.551-1.145-1.686-2.008C131.202,277.691,133.45,276.614,135.248,276.698z"
					/>
			</g>
			<g>
				<g>
					<path style="fill:#407BFF;" d="M102.491,265.203v-15.687c0-1.184,0.96-2.143,2.143-2.143h32.206
						c1.184,0,2.143,0.96,2.143,2.143v15.687H102.491z"/>
					<path style="opacity:0.8;fill:#FFFFFF;" d="M102.491,265.203v-15.687c0-1.184,0.96-2.143,2.143-2.143h32.206
						c1.184,0,2.143,0.96,2.143,2.143v15.687H102.491z"/>
				</g>
				<path style="fill:#FFFFFF;" d="M138.94,255.411c-1.669,0.847-3.85,0.917-5.673,0.737c-0.836-0.13-1.674-0.327-2.471-0.607
					c-0.589-0.206-1.33-0.472-1.742-0.973c-0.245-0.298-0.356-0.801-0.033-1.107c0.402-0.381,1.394-0.037,0.853,0.592
					c-0.177,0.206,0.121,0.506,0.299,0.299c0.516-0.6,0.257-1.361-0.56-1.474c-0.873-0.12-1.442,0.807-1.123,1.582
					c0.107,0.26,0.281,0.484,0.497,0.683c-0.558-0.105-1.106-0.143-1.624-0.044c-0.583,0.111-1.018,0.362-1.142,0.971
					c-0.217,1.062,0.96,2.705,1.995,2.938c0.472,0.106,0.839-0.014,1.109-0.423c0.759-1.15-0.665-2.022-1.581-2.25
					c-0.264-0.066-0.377,0.342-0.112,0.408c1.043,0.26,1.544,2.485,0.293,1.654c-0.3-0.2-0.565-0.489-0.772-0.781
					c-0.283-0.4-0.697-1.085-0.492-1.587c0.405-0.991,2.108-0.399,2.822-0.212c1.251,0.328,2.486,0.635,3.776,0.756
					c0.007,0.001,0.015,0.002,0.022,0.003c0.001,0,0.002,0,0.003,0c0.017,0.001,0.033,0.005,0.049,0.006
					c1.738,0.153,3.894,0.065,5.608-0.718V255.411z"/>
				<path style="fill:#407BFF;" d="M136.84,247.373h-32.206c-1.184,0-2.143,0.96-2.143,2.143v2.779
					c0.612-1.088,1.657-2.358,3.208-2.358c2.773,0,1.998,2.842,5.129,2.842c3.119,0,2.149-2.85,3.951-2.85
					c1.872,0,1.243,1.945,3.119,1.945c1.941,0,1.523-1.95,3.119-1.95c1.802,0,2.149,2.647,4.367,2.647c2.15,0,1.763-2.65,3.189-2.65
					c1.386,0,1.87,1.949,3.397,1.949c1.941,0,1.594-1.983,4.22-1.983c1.422,0,2.22,0.536,2.793,1.614v-1.986
					C138.984,248.333,138.024,247.373,136.84,247.373z"/>
				<path style="opacity:0.3;fill:#FFFFFF;" d="M136.84,247.373h-32.206c-1.184,0-2.143,0.96-2.143,2.143v2.779
					c0.612-1.088,1.657-2.358,3.208-2.358c2.773,0,1.998,2.842,5.129,2.842c3.119,0,2.149-2.85,3.951-2.85
					c1.872,0,1.243,1.945,3.119,1.945c1.941,0,1.523-1.95,3.119-1.95c1.802,0,2.149,2.647,4.367,2.647c2.15,0,1.763-2.65,3.189-2.65
					c1.386,0,1.87,1.949,3.397,1.949c1.941,0,1.594-1.983,4.22-1.983c1.422,0,2.22,0.536,2.793,1.614v-1.986
					C138.984,248.333,138.024,247.373,136.84,247.373z"/>
				<path style="fill:#FFFFFF;" d="M110.538,256.337c-0.166-1.954-2.936-2.175-4.113-0.993c-1.676,1.682,0.358,3.099,2.046,2.077
					c0.318-0.193,0.033-0.695-0.285-0.503c0.069-0.042-2.306-1.057-0.568-1.609c0.504-0.16,1.211-0.183,1.66,0.145
					c1.046,0.765,0.52,2.259-0.326,3.029c-1.014,0.923-2.459,1.318-3.775,1.572c-0.878,0.169-1.78,0.274-2.685,0.321v0.58
					c0.876-0.037,1.834-0.12,2.785-0.286c0.85,0.153,1.874,0.427,2.463,1.044c0.44,0.461,0.309,1.62-0.507,1.468
					c-0.405-0.075-1.067-0.787-0.351-0.885c0.368-0.051,0.217-0.609-0.147-0.559c-0.875,0.12-0.945,0.962-0.405,1.539
					c0.582,0.623,1.505,0.685,2.001-0.068c0.934-1.417-0.483-2.333-1.833-2.803C108.812,259.797,110.732,258.602,110.538,256.337z"
					/>
			</g>
			<g>
				<g>
					<path style="fill:#407BFF;" d="M107.652,247.373v-11.261c0-0.85,0.689-1.539,1.539-1.539h23.121
						c0.85,0,1.539,0.689,1.539,1.539v11.261H107.652z"/>
					<path style="opacity:0.8;fill:#FFFFFF;" d="M107.652,247.373v-11.261c0-0.85,0.689-1.539,1.539-1.539h23.121
						c0.85,0,1.539,0.689,1.539,1.539v11.261H107.652z"/>
				</g>
				<path style="fill:#FFFFFF;" d="M107.624,243.017c2.095-1.063,4.832-1.15,7.12-0.924c1.049,0.164,2.101,0.411,3.102,0.761
					c0.739,0.259,1.669,0.593,2.187,1.221c0.308,0.373,0.447,1.005,0.041,1.389c-0.505,0.478-1.75,0.046-1.071-0.743
					c0.222-0.258-0.152-0.635-0.375-0.376c-0.647,0.753-0.323,1.708,0.703,1.85c1.095,0.151,1.81-1.013,1.41-1.985
					c-0.134-0.326-0.353-0.607-0.624-0.857c0.7,0.131,1.388,0.179,2.038,0.055c0.731-0.139,1.277-0.454,1.434-1.219
					c0.273-1.332-1.205-3.395-2.503-3.688c-0.592-0.133-1.053,0.017-1.392,0.531c-0.953,1.443,0.835,2.538,1.984,2.824
					c0.332,0.083,0.473-0.429,0.141-0.512c-1.309-0.326-1.938-3.119-0.368-2.075c0.377,0.251,0.709,0.613,0.969,0.98
					c0.355,0.502,0.874,1.362,0.617,1.991c-0.508,1.243-2.646,0.501-3.542,0.266c-1.571-0.412-3.12-0.796-4.739-0.949
					c-0.009-0.001-0.019-0.003-0.027-0.004c-0.001,0-0.002,0-0.004,0c-0.021-0.002-0.041-0.006-0.062-0.008
					c-2.182-0.193-4.887-0.082-7.038,0.901V243.017z"/>
				<path style="fill:#407BFF;" d="M132.311,234.573h-23.12c-0.85,0-1.539,0.689-1.539,1.539v1.995
					c0.439-0.781,1.189-1.693,2.303-1.693c1.99,0,1.434,2.04,3.682,2.04c2.239,0,1.543-2.046,2.836-2.046
					c1.344,0,0.892,1.396,2.239,1.396c1.393,0,1.093-1.4,2.239-1.4c1.294,0,1.543,1.9,3.135,1.9c1.543,0,1.266-1.902,2.289-1.902
					c0.995,0,1.342,1.399,2.438,1.399c1.393,0,1.145-1.423,3.03-1.423c1.021,0,1.594,0.385,2.005,1.159v-1.425
					C133.85,235.262,133.161,234.573,132.311,234.573z"/>
				<path style="opacity:0.3;fill:#FFFFFF;" d="M132.311,234.573h-23.12c-0.85,0-1.539,0.689-1.539,1.539v1.995
					c0.439-0.781,1.189-1.693,2.303-1.693c1.99,0,1.434,2.04,3.682,2.04c2.239,0,1.543-2.046,2.836-2.046
					c1.344,0,0.892,1.396,2.239,1.396c1.393,0,1.093-1.4,2.239-1.4c1.294,0,1.543,1.9,3.135,1.9c1.543,0,1.266-1.902,2.289-1.902
					c0.995,0,1.342,1.399,2.438,1.399c1.393,0,1.145-1.423,3.03-1.423c1.021,0,1.594,0.385,2.005,1.159v-1.425
					C133.85,235.262,133.161,234.573,132.311,234.573z"/>
			</g>
			<g>
				<g>
					<path style="fill:#407BFF;" d="M124.284,224.339c0,0.432-0.282,0.783-0.63,0.783c-0.348,0-0.63-0.351-0.63-0.783
						c0-0.433,0.282-0.783,0.63-0.783C124.001,223.555,124.284,223.906,124.284,224.339z"/>
					<path style="fill:#407BFF;" d="M124.422,228.317h-1.538l-0.61-2.403c-0.075-0.295,0.148-0.581,0.452-0.581h1.854
						c0.304,0,0.527,0.287,0.452,0.581L124.422,228.317z"/>
					<g>
						<path style="fill:#407BFF;" d="M119.398,224.339c0,0.432-0.282,0.783-0.63,0.783c-0.348,0-0.63-0.351-0.63-0.783
							c0-0.433,0.282-0.783,0.63-0.783C119.115,223.555,119.398,223.906,119.398,224.339z"/>
						<path style="fill:#407BFF;" d="M119.398,228.317h-1.261l-0.431-2.486c-0.045-0.26,0.155-0.499,0.42-0.499h1.284
							c0.264,0,0.465,0.238,0.42,0.499L119.398,228.317z"/>
						<path style="fill:#407BFF;" d="M118.137,228.557h1.261l1.666,4.927c0.181,0.535-0.217,1.088-0.781,1.088h-3.03
							c-0.564,0-0.962-0.554-0.781-1.088L118.137,228.557z"/>
					</g>
					<polygon style="fill:#407BFF;" points="122.903,228.557 124.403,228.557 124.022,234.573 123.241,234.573 					"/>
				</g>
				<g style="opacity:0.3;">
					<path d="M124.284,224.339c0,0.432-0.282,0.783-0.63,0.783c-0.348,0-0.63-0.351-0.63-0.783c0-0.433,0.282-0.783,0.63-0.783
						C124.001,223.555,124.284,223.906,124.284,224.339z"/>
					<path d="M124.422,228.317h-1.538l-0.61-2.403c-0.075-0.295,0.148-0.581,0.452-0.581h1.854c0.304,0,0.527,0.287,0.452,0.581
						L124.422,228.317z"/>
					<g>
						<path d="M119.398,224.339c0,0.432-0.282,0.783-0.63,0.783c-0.348,0-0.63-0.351-0.63-0.783c0-0.433,0.282-0.783,0.63-0.783
							C119.115,223.555,119.398,223.906,119.398,224.339z"/>
						<path d="M119.398,228.317h-1.261l-0.431-2.486c-0.045-0.26,0.155-0.499,0.42-0.499h1.284c0.264,0,0.465,0.238,0.42,0.499
							L119.398,228.317z"/>
						<path d="M118.137,228.557h1.261l1.666,4.927c0.181,0.535-0.217,1.088-0.781,1.088h-3.03c-0.564,0-0.962-0.554-0.781-1.088
							L118.137,228.557z"/>
					</g>
					<polygon points="122.903,228.557 124.403,228.557 124.022,234.573 123.241,234.573 					"/>
				</g>
			</g>
			<g>
				<path style="fill:#407BFF;" d="M145.41,292.31H96.064c-1.512,0-2.738-1.226-2.738-2.738l0,0h54.822l0,0
					C148.148,291.084,146.922,292.31,145.41,292.31z"/>
				<path style="opacity:0.5;fill:#FFFFFF;" d="M145.41,292.31H96.064c-1.512,0-2.738-1.226-2.738-2.738l0,0h54.822l0,0
					C148.148,291.084,146.922,292.31,145.41,292.31z"/>
			</g>
		</g>
		<g>
			<g>
				<path style="fill:#407BFF;" d="M140.5,401.142c-5.129-1.814-13.735-5.312-15.414-8.862c-1.571-3.322,0.318-8.847,0.318-15.755
					c0-7.152-0.538-10.271-1.404-11.611c0.675-0.349,0.987-0.826,0.987-1.355c0-0.604-0.423-1.137-1.316-1.491
					c0.876-0.496,1.435-1.314,1.435-2.593c0-1.279-0.559-2.097-1.435-2.592c0.893-0.354,1.316-0.887,1.316-1.491
					c0-0.528-0.312-1.006-0.987-1.355c0.866-1.34,1.404-4.459,1.404-11.611c0-14.103-2.089-38.536-4.667-38.536
					c-2.577,0-4.667,24.433-4.667,38.536c0,7.152,0.538,10.271,1.404,11.611c-0.675,0.349-0.987,0.827-0.987,1.355
					c0,0.604,0.422,1.137,1.315,1.491c-0.876,0.496-1.435,1.314-1.435,2.592c0,1.279,0.559,2.097,1.435,2.593
					c-0.893,0.354-1.316,0.887-1.316,1.491c0,0.528,0.312,1.006,0.987,1.355c-0.866,1.34-1.404,4.459-1.404,11.611
					c0,6.908,1.889,12.433,0.318,15.755c-1.679,3.55-10.285,7.048-15.414,8.862c-0.699,0.247-0.515,1.278,0.226,1.278h39.073
					C141.015,402.421,141.199,401.39,140.5,401.142z"/>
				<path style="opacity:0.3;" d="M140.5,401.142c-5.129-1.814-13.735-5.312-15.414-8.862c-1.571-3.322,0.318-8.847,0.318-15.755
					c0-7.152-0.538-10.271-1.404-11.611c0.675-0.349,0.987-0.826,0.987-1.355c0-0.604-0.423-1.137-1.316-1.491
					c0.876-0.496,1.435-1.314,1.435-2.593c0-1.279-0.559-2.097-1.435-2.592c0.893-0.354,1.316-0.887,1.316-1.491
					c0-0.528-0.312-1.006-0.987-1.355c0.866-1.34,1.404-4.459,1.404-11.611c0-14.103-2.089-38.536-4.667-38.536
					c-2.577,0-4.667,24.433-4.667,38.536c0,7.152,0.538,10.271,1.404,11.611c-0.675,0.349-0.987,0.827-0.987,1.355
					c0,0.604,0.422,1.137,1.315,1.491c-0.876,0.496-1.435,1.314-1.435,2.592c0,1.279,0.559,2.097,1.435,2.593
					c-0.893,0.354-1.316,0.887-1.316,1.491c0,0.528,0.312,1.006,0.987,1.355c-0.866,1.34-1.404,4.459-1.404,11.611
					c0,6.908,1.889,12.433,0.318,15.755c-1.679,3.55-10.285,7.048-15.414,8.862c-0.699,0.247-0.515,1.278,0.226,1.278h39.073
					C141.015,402.421,141.199,401.39,140.5,401.142z"/>
			</g>
			<g>
				<path style="fill:#407BFF;" d="M195.867,342.932c-8.299,8.299-21.753,8.299-30.052,0c-8.299,8.299-21.753,8.299-30.052,0
					c-8.299,8.299-21.753,8.299-30.052,0c-8.299,8.299-21.753,8.299-30.052,0c-8.299,8.299-21.753,8.299-30.052,0v-41.023
					c0-5.518,4.474-9.992,9.992-9.992h130.277c5.518,0,9.992,4.473,9.992,9.992V342.932z"/>
				<path style="opacity:0.1;" d="M73.998,335.339c-2.458-4.898,1.057-23.134,1.057-23.134S76.469,340.263,73.998,335.339z"/>
				<path style="opacity:0.1;" d="M104.028,335.664c-2.458-4.898,1.057-23.134,1.057-23.134S106.499,340.587,104.028,335.664z"/>
				<path style="opacity:0.1;" d="M134.058,335.988c-2.458-4.898,1.057-23.134,1.057-23.134S136.529,340.912,134.058,335.988z"/>
				<path style="opacity:0.1;" d="M164.088,336.313c-2.458-4.898,1.057-23.134,1.057-23.134S166.559,341.236,164.088,336.313z"/>
			</g>
		</g>
	</g>
</g>
<g id="Character_2">
	<g>
		<g>
			<g>
				<path style="fill:#407BFF;" d="M417.734,201.524h-1.411v-6.579c0-1.667,0.878-3.17,2.296-3.934
					c0.685-0.369,1.262-0.933,1.587-1.639c1.14-2.474-0.786-5.011-3.178-5.011c-1.773,0-3.244,1.32-3.481,3.03
					c-0.039,0.281-0.289,0.485-0.573,0.485h-0.242c-0.363,0-0.632-0.327-0.582-0.686c0.377-2.69,2.934-4.691,5.823-4.151
					c1.873,0.351,3.417,1.824,3.847,3.681c0.525,2.267-0.542,4.489-2.506,5.519c-0.975,0.512-1.581,1.55-1.581,2.706V201.524z"/>
			</g>
			<g>
				<g>
					<g>
						<path style="fill:#407BFF;" d="M406.635,198.389c0,1.483,4.593,0.752,10.26,0.752c5.666,0,10.259,0.731,10.259-0.752
							l-8.433,42.757h-3.65L406.635,198.389z"/>
						<path style="opacity:0.8;fill:#FFFFFF;" d="M406.635,198.389c0,1.483,4.593,0.752,10.26,0.752
							c5.666,0,10.259,0.731,10.259-0.752l-8.433,42.757h-3.65L406.635,198.389z"/>
					</g>
					<g>
						<path style="fill:#407BFF;" d="M451.836,283.212v4.995c0,0-3.787-1.209-8.863-0.806v-5.076L451.836,283.212z"/>
						<path style="opacity:0.8;fill:#FFFFFF;" d="M451.836,283.212v4.995c0,0-3.787-1.209-8.863-0.806v-5.076L451.836,283.212z"/>
					</g>
					<path style="fill:#407BFF;" d="M426.456,197.805c0,0-11.119,37.063-11.119,57.529c0,20.465,7.896,38.675,7.896,38.675
						s11.28,3.706,16.759-2.417c0,0-3.706-39.964-1.45-56.884c0,0,3.223,20.143,3.062,49.632c0,0,5.962-2.095,11.28,0.967
						c0,0-0.322-31.907-2.74-58.495c-2.417-26.589-6.124-22.077-6.124-22.077L426.456,197.805z"/>
					<path style="opacity:0.7;" d="M426.456,197.805c0,0-11.119,37.063-11.119,57.529c0,20.465,7.896,38.675,7.896,38.675
						s11.28,3.706,16.759-2.417c0,0-3.706-39.964-1.45-56.884c0,0,3.223,20.143,3.062,49.632c0,0,5.962-2.095,11.28,0.967
						c0,0-0.322-31.907-2.74-58.495c-2.417-26.589-6.124-22.077-6.124-22.077L426.456,197.805z"/>
					<circle style="fill:#263238;" cx="449.902" cy="285.79" r="0.846"/>
					<path style="fill:#407BFF;" d="M417.166,237.162c3.156-18.907,9.29-39.357,9.29-39.357l1.283,0.506l4.76,10.291l-2.739,1.853
						l4.351-0.564L417.166,237.162z"/>
					<path style="fill:#407BFF;" d="M428.792,265.244l9.489,1.498c0.116,2.41,0.246,4.763,0.381,7l-7.669-1.118
						c-1.714-0.25-2.911-1.827-2.691-3.545L428.792,265.244z"/>
					<g>
						<g>
							<path style="fill:#407BFF;" d="M382.221,283.212v4.995c0,0,3.787-1.209,8.863-0.806v-5.076L382.221,283.212z"/>
							<path style="opacity:0.8;fill:#FFFFFF;" d="M382.221,283.212v4.995c0,0,3.787-1.209,8.863-0.806v-5.076L382.221,283.212z"/>
						</g>
						<path style="fill:#407BFF;" d="M407.602,197.805c0,0,11.119,37.063,11.119,57.529c0,20.465-7.896,38.675-7.896,38.675
							s-11.28,3.706-16.759-2.417c0,0,3.706-39.964,1.45-56.884c0,0-3.223,20.143-3.062,49.632c0,0-5.962-2.095-11.28,0.967
							c0,0,0.322-31.907,2.74-58.495c2.417-26.589,6.123-22.077,6.123-22.077L407.602,197.805z"/>
						<path style="opacity:0.7;" d="M407.602,197.805c0,0,11.119,37.063,11.119,57.529c0,20.465-7.896,38.675-7.896,38.675
							s-11.28,3.706-16.759-2.417c0,0,3.706-39.964,1.45-56.884c0,0-3.223,20.143-3.062,49.632c0,0-5.962-2.095-11.28,0.967
							c0,0,0.322-31.907,2.74-58.495c2.417-26.589,6.123-22.077,6.123-22.077L407.602,197.805z"/>
						<circle style="fill:#263238;" cx="384.155" cy="285.79" r="0.846"/>
						<path style="fill:#407BFF;" d="M416.892,237.162c-3.156-18.907-9.29-39.357-9.29-39.357l-1.283,0.506l-4.76,10.291
							l2.739,1.853l-4.351-0.564L416.892,237.162z"/>
						<path style="fill:#407BFF;" d="M405.265,265.244l-9.489,1.498c-0.116,2.41-0.246,4.763-0.381,7l7.669-1.118
							c1.714-0.25,2.911-1.827,2.691-3.545L405.265,265.244z"/>
						<circle style="fill:#407BFF;" cx="415.981" cy="251.95" r="0.91"/>
					</g>
				</g>
				<g>
					<path style="fill:#263238;" d="M413.355,205.114c-0.388,0.181-1.244,0.365-1.973,0.5c-0.573,0.106-1.063-0.413-0.93-0.98
						c0.193-0.826,0.41-1.867,0.41-2.37c0-0.503-0.217-1.544-0.41-2.37c-0.133-0.567,0.357-1.086,0.93-0.98
						c0.729,0.134,1.585,0.318,1.973,0.5c1.055,0.494,3.686,2.851,3.686,2.851S414.411,204.62,413.355,205.114z"/>
					<path style="fill:#263238;" d="M420.702,205.114c0.388,0.181,1.244,0.365,1.973,0.5c0.573,0.106,1.063-0.413,0.93-0.98
						c-0.193-0.826-0.41-1.867-0.41-2.37c0-0.503,0.217-1.544,0.41-2.37c0.133-0.567-0.357-1.086-0.93-0.98
						c-0.729,0.134-1.585,0.318-1.973,0.5c-1.055,0.494-3.686,2.851-3.686,2.851S419.647,204.62,420.702,205.114z"/>
					<path style="fill:#263238;" d="M419.076,203.76c0.069,0.319-0.21,0.605-0.532,0.546c-0.518-0.095-1.193-0.205-1.525-0.203
						c-0.323,0.001-0.977,0.112-1.478,0.206c-0.316,0.059-0.594-0.215-0.537-0.532c0.091-0.511,0.198-1.184,0.198-1.514
						c0-0.329-0.106-0.998-0.197-1.508c-0.056-0.317,0.222-0.594,0.538-0.532c0.5,0.098,1.152,0.213,1.473,0.214
						c0.332,0.002,1.007-0.113,1.526-0.212c0.322-0.061,0.603,0.226,0.533,0.547c-0.11,0.508-0.238,1.166-0.238,1.49
						C418.837,202.589,418.966,203.251,419.076,203.76z"/>
				</g>
			</g>
		</g>
		<g>
			<g>
				<polygon style="fill:#FFC3BD;" points="340.358,383.199 338.113,399.566 329.604,397.716 330.844,382.767 				"/>
				<path style="fill:#263238;" d="M328.213,396.442l10.874,1.49c0.41,0.056,0.726,0.389,0.761,0.801l0.753,9.115
					c0.073,0.808-0.523,1.522-1.331,1.595c-0.104,0.009-0.208,0.008-0.311-0.005c-3.91-0.605-7.367-1.298-12.248-1.96
					c-5.759-0.787-4.392,0.102-11.176-0.73c-4.087-0.505-4.198-5.245-2.437-5.236c8.053,0.089,9.203-2.189,12.645-4.604
					C326.481,396.455,327.361,396.289,328.213,396.442z"/>
				<polygon style="opacity:0.1;" points="340.004,385.78 339.163,391.913 330.177,390.807 330.589,385.842 				"/>
			</g>
			<g>
				<polygon style="fill:#FFC3BD;" points="379.968,382.897 380.18,399.416 371.49,398.851 370.495,383.884 				"/>
				<path style="fill:#263238;" d="M369.926,397.797l10.974-0.142c0.413-0.005,0.776,0.276,0.872,0.679l2.099,8.902
					c0.192,0.788-0.291,1.583-1.08,1.775c-0.101,0.025-0.205,0.038-0.309,0.041c-3.957-0.017-7.478-0.189-12.403-0.118
					c-5.812,0.077-4.328,0.753-11.161,0.939c-4.117,0.108-4.931-4.562-3.188-4.815c7.977-1.109,8.776-3.533,11.821-6.432
					C368.215,398.068,369.06,397.773,369.926,397.797z"/>
				<polygon style="opacity:0.1;" points="380.002,385.502 380.081,391.692 371.03,391.933 370.7,386.963 				"/>
			</g>
			<path style="fill:#263238;" d="M350.599,125.306c0,0-2.517,1.573-5.741-0.865c0,0,1.022,6.055,6.527,4.561l0.452-2.764
				L350.599,125.306z"/>
			<g>
				<g>
					<path style="fill:#407BFF;" d="M332.728,232.592l-3.329,72.25l-0.849,83.653l12.44,1.402c0,0,5.099-28.85,6.864-54.836
						c0.689-10.147-0.023-19.857-0.055-27.243c-0.065-14.801,7.675-36.497,9.555-58.427l0.286-16.8H332.728z"/>
					<path style="opacity:0.2;" d="M352.807,255.2h-4.909c0,0-0.672,23.942,1.339,39.006c1.659-9.406,4.397-20.174,6.328-31.386
						L352.807,255.2z"/>
				</g>
				<path style="fill:#407BFF;" d="M344.358,233.649l13.393,81.531l11.573,74.717h11.923c0,0,0.8-27.61-0.834-52.141
					c-0.551-8.266-2.158-16.183-3.119-22.576c-3.122-20.774,0.664-63.204-4.975-83.88L344.358,233.649z"/>
			</g>
			<path style="fill:#263238;" d="M302.387,191.788c4.686,4.012,13.789,11.228,17.77,10.432c5.482-1.096,13.001-15.82,13.001-15.82
				s10.644-22.263,5.322-21.94c0,0-4.382-1.869-20.359,26.482c0,0-5.769-1.369-12.305-5.101L302.387,191.788z"/>
			<path style="fill:#263238;" d="M331.905,233.728c0,0-4.073-64.535,5.012-68.921c9.085-4.386,32.581-2.193,38.22,1.88
				c5.639,4.073-1.566,67.042-1.566,67.042S346.629,238.114,331.905,233.728z"/>
			<path style="fill:#FFC3BD;" d="M305.45,185.995c-0.853-0.487-1.721-1.021-2.589-1.606l-4.394-3.378l-7.04-2.53l-2.413,2.929
				l0.799,3.861l0.949,1.881l3.312,0.782l3.462,1.598l2.53-0.666c0,0,0.968,0.898,2.47,2.184L305.45,185.995z"/>
			<g>
				<polygon style="fill:#407BFF;" points="305.355,184.363 301.067,192.058 303.064,193.585 307.47,185.714 				"/>
			</g>
			<path style="fill:#263238;" d="M408.004,192.415c-5.181,3.728-15.32,10.635-19.401,10.676
				c-5.947,0.061-12.213-14.407-12.213-14.407s-9.712-24.54-4.23-23.353c3.073,0.665,2.503-1.869,18.48,26.482
				c0,0,7.212-1.374,14.137-5.124L408.004,192.415z"/>
			<path style="fill:#FFC3BD;" d="M405.075,186.954c0.889-0.482,1.773-1.009,2.629-1.586l4.394-3.378c0,0,5.237-3.026,7.04-2.53
				c0.915,0.252,2.185,2.008,2.413,2.929c0.237,0.957-0.799,3.861-0.799,3.861l-0.949,1.881l-3.312,0.782l-3.462,1.598l-2.53-0.666
				c0,0-1.052,0.803-2.682,1.976L405.075,186.954z"/>
			<g>
				<polygon style="fill:#407BFF;" points="405.286,185.079 409.574,192.773 407.577,194.301 403.171,186.43 				"/>
			</g>
			<path style="fill:#FFC3BD;" d="M362.197,146.922c-1.103,5.035-2.12,13.118,1.902,15.916c2.577,1.793,5.875,3-11.73,5.958
				c-7.645-2.75-4.771-6.333-4.771-6.333c5.703-1.222,5.599-3.526,4.707-7.489L362.197,146.922z"/>
			<path style="opacity:0.2;enable-background:new    ;" d="M358.184,150.165l-5.815,4.811c0.225,0.92,0.366,1.858,0.422,2.803
				c2.18-0.258,5.618-2.021,6.135-4.362C358.953,152.288,358.698,151.17,358.184,150.165z"/>
			<path style="fill:#FFC3BD;" d="M367.543,139.34c-2.321,7.792-3.142,11.128-8.075,14.247c-7.424,4.703-16.482,0.136-16.536-8.182
				c-0.035-7.494,3.783-19.014,12.246-20.306c6.041-0.986,11.738,3.111,12.724,9.152C368.18,135.952,368.057,137.694,367.543,139.34
				z"/>
			<path style="fill:#263238;" d="M354.471,138.472c-0.157,0.641-0.619,1.085-1.035,0.993c-0.416-0.092-0.642-0.705-0.497-1.347
				c0.145-0.641,0.619-1.085,1.035-0.993C354.39,137.217,354.579,137.854,354.471,138.472z"/>
			<path style="fill:#263238;" d="M347.203,136.794c-0.157,0.653-0.619,1.085-1.035,0.993c-0.416-0.092-0.642-0.705-0.497-1.347
				c0.145-0.641,0.619-1.085,1.035-0.981S347.348,136.153,347.203,136.794z"/>
			<path style="fill:#ED893E;" d="M349.173,138.482c-0.919,1.334-2.016,2.536-3.26,3.572c0.559,0.624,1.361,0.976,2.199,0.964
				L349.173,138.482z"/>
			<path style="fill:#263238;" d="M351.026,146.348c-0.325-0.023-0.647-0.073-0.964-0.151c-0.103-0.02-0.171-0.12-0.152-0.223
				c0-0.002,0.001-0.004,0.001-0.007c0.031-0.103,0.137-0.163,0.242-0.138c1.614,0.409,3.327,0.029,4.615-1.026
				c0.077-0.074,0.2-0.072,0.274,0.006c0.074,0.077,0.071,0.2-0.006,0.274C353.927,146.029,352.48,146.485,351.026,146.348z"/>
			<path style="fill:#263238;" d="M357.733,137.693c-0.169-0.009-0.313-0.129-0.352-0.294c-0.46-1.191-1.396-2.136-2.583-2.607
				c-0.202-0.077-0.304-0.303-0.228-0.506c0.075-0.197,0.295-0.296,0.492-0.222c0.004,0.002,0.009,0.004,0.013,0.005
				c1.431,0.556,2.548,1.707,3.061,3.154c0.048,0.205-0.078,0.411-0.284,0.459l0,0C357.814,137.697,357.773,137.701,357.733,137.693
				z"/>
			<path style="fill:#263238;" d="M345.803,132.935c-0.141-0.011-0.266-0.095-0.329-0.222c-0.092-0.193-0.013-0.425,0.178-0.521
				c1.117-0.599,2.46-0.603,3.58-0.009c0.179,0.098,0.245,0.322,0.148,0.502c-0.005,0.009-0.01,0.018-0.016,0.026
				c-0.107,0.182-0.341,0.242-0.523,0.135c-0.002-0.001-0.003-0.002-0.005-0.003l0,0c-0.889-0.432-1.931-0.413-2.805,0.049
				C345.961,132.929,345.882,132.944,345.803,132.935z"/>
			<g>
				<path style="fill:#407BFF;" d="M347.882,161.987c0,0,0.157,5.639,4.308,6.187c4.151,0.548,11.513-2.898,13.158-5.404
					l1.958,0.548c0,0-1.645,6.736-10.887,8.928l-3.994-3.054l-4.934,1.958c0,0-2.585-2.82-1.331-9.163H347.882z"/>
			</g>
			<path style="fill:#263238;" d="M363.895,144.101c0,0-1.885-4.468,0-9.785c0,0-16.227-4.403-16.716-12.721
				c0,0,1.966,1.824,3.975,1.876c0,0-2.402-5.399,1.097-8.073c0,0-0.493,4.729,3.578,5.79c0,0-0.55-3.509,2.196-4.811
				c0,0,0.163,4.24,2.609,4.893c2.446,0.652,9.378,4.73,8.644,8.481c0,0,3.588,6.523-2.365,14.352H363.895z"/>
			<path style="fill:#263238;" d="M368.047,130.26c0,0,4.729-1.258,4.335-4.797C372.382,125.463,375.822,132.383,368.047,130.26z"/>
			<path style="fill:#FFC3BD;" d="M368.278,145.918c-0.826,1.299-2.132,2.22-3.633,2.562c-2.002,0.424-2.883-1.396-2.224-3.232
				c0.607-1.646,2.371-3.853,4.332-3.49c1.416,0.309,2.314,1.707,2.005,3.123C368.677,145.258,368.512,145.612,368.278,145.918z"/>
		</g>
		<g>
			<g>
				<path style="fill:#407BFF;" d="M296.214,164.655c-0.442,3.041-3.173,6.367-5.888,5.973c-2.716-0.395-4.387-4.36-3.945-7.402
					c0.442-3.042,2.659-2.827,5.374-2.433S296.656,161.613,296.214,164.655z"/>
				<path style="fill:#407BFF;" d="M288.625,161.946c0,0,1.653,2.098,6.066,2.137C294.691,164.082,287.046,166.938,288.625,161.946z
					"/>
				<path style="fill:#407BFF;" d="M290.558,161.775c0,0,2.441,0.143,2.246,1.13c0,0,2.016,0.357,1.936-0.54
					C294.66,161.467,290.558,161.775,290.558,161.775z"/>
				<path style="opacity:0.2;" d="M288.625,161.946c0,0,1.653,2.098,6.066,2.137C294.691,164.082,287.046,166.938,288.625,161.946z"
					/>
				<path style="opacity:0.2;" d="M290.558,161.775c0,0,2.441,0.143,2.246,1.13c0,0,2.016,0.357,1.936-0.54
					C294.66,161.467,290.558,161.775,290.558,161.775z"/>
			</g>
			<g>
				<path style="fill:#407BFF;" d="M305.166,167.61c-1.195,2.832-4.676,5.361-7.205,4.295c-2.528-1.067-3.146-5.326-1.951-8.157
					c1.195-2.832,3.286-2.065,5.814-0.998C304.353,163.815,306.361,164.778,305.166,167.61z"/>
				<path style="fill:#407BFF;" d="M298.505,163.074c0,0,1.071,2.447,5.331,3.597C303.836,166.671,295.719,167.507,298.505,163.074z
					"/>
				<path style="fill:#407BFF;" d="M300.419,163.396c0,0,2.327,0.754,1.888,1.66c0,0,1.861,0.854,2.01-0.035
					C304.466,164.133,300.419,163.396,300.419,163.396z"/>
				<path style="opacity:0.2;" d="M298.505,163.074c0,0,1.071,2.447,5.331,3.597C303.836,166.671,295.719,167.507,298.505,163.074z"
					/>
				<path style="opacity:0.2;" d="M300.419,163.396c0,0,2.327,0.754,1.888,1.66c0,0,1.861,0.854,2.01-0.035
					C304.466,164.133,300.419,163.396,300.419,163.396z"/>
			</g>
			<polygon style="fill:#407BFF;" points="283.598,167.204 287.166,183.602 281.108,194.471 283.356,195.549 288.333,187.311 
				286.234,196.677 288.426,197.168 289.774,191.154 290.043,197.531 293.422,197.805 293.036,189.729 294.923,196.962 
				298.349,196.646 295.328,185.056 304.504,171.89 301.279,170.625 298.077,177.039 299.714,169.732 296.438,168.997 
				294.477,176.232 294.282,168.514 291.588,167.911 291.464,176.041 288.679,167.258 			"/>
			<polygon style="opacity:0.5;fill:#FFFFFF;" points="283.598,167.204 287.166,183.602 281.108,194.471 283.356,195.549 
				288.333,187.311 286.234,196.677 288.426,197.168 289.774,191.154 290.043,197.531 293.422,197.805 293.036,189.729 
				294.923,196.962 298.349,196.646 295.328,185.056 304.504,171.89 301.279,170.625 298.077,177.039 299.714,169.732 
				296.438,168.997 294.477,176.232 294.282,168.514 291.588,167.911 291.464,176.041 288.679,167.258 			"/>
			<g>
				<path style="fill:#407BFF;" d="M286.328,182.963c0,0-4.955,1.908-6.892,0.115c0,0,1.226,1.935,2.193,2.001l-1.56,0.858
					c0,0,3.178,1.01,7.097-2.335L286.328,182.963z"/>
				<path style="opacity:0.2;" d="M286.328,182.963c0,0-4.955,1.908-6.892,0.115c0,0,1.226,1.935,2.193,2.001l-1.56,0.858
					c0,0,3.178,1.01,7.097-2.335L286.328,182.963z"/>
			</g>
			<g>
				<path style="fill:#407BFF;" d="M295.776,182.891c0,0,3.667,3.84,6.184,3.046c0,0-1.935,1.226-2.837,0.873l1.044,1.441
					c0,0-3.305-0.443-5.422-5.141L295.776,182.891z"/>
				<path style="opacity:0.2;" d="M295.776,182.891c0,0,3.667,3.84,6.184,3.046c0,0-1.935,1.226-2.837,0.873l1.044,1.441
					c0,0-3.305-0.443-5.422-5.141L295.776,182.891z"/>
			</g>
			<g>
				<path style="fill:#407BFF;" d="M302.816,168.559c-0.827,2.96-3.962,5.909-6.604,5.17c-2.643-0.739-3.793-4.886-2.966-7.846
					c0.827-2.96,2.999-2.464,5.641-1.725S303.643,165.599,302.816,168.559z"/>
				<path style="opacity:0.2;" d="M302.816,168.559c-0.827,2.96-3.962,5.909-6.604,5.17c-2.643-0.739-3.793-4.886-2.966-7.846
					c0.827-2.96,2.999-2.464,5.641-1.725S303.643,165.599,302.816,168.559z"/>
				<path style="fill:#407BFF;" d="M295.636,164.9c0,0,1.371,2.292,5.743,2.895C301.379,167.796,293.431,169.65,295.636,164.9z"/>
				<path style="fill:#407BFF;" d="M297.574,164.978c0,0,2.403,0.454,2.083,1.408c0,0,1.954,0.612,1.99-0.288
					S297.574,164.978,297.574,164.978z"/>
				<path style="opacity:0.4;" d="M295.636,164.9c0,0,1.371,2.292,5.743,2.895C301.379,167.796,293.431,169.65,295.636,164.9z"/>
				<path style="opacity:0.4;" d="M297.574,164.978c0,0,2.403,0.454,2.083,1.408c0,0,1.954,0.612,1.99-0.288
					S297.574,164.978,297.574,164.978z"/>
			</g>
			<g>
				<path style="fill:#407BFF;" d="M292.838,165.792c0.034,3.073-2.149,6.782-4.893,6.813c-2.744,0.031-5.01-3.628-5.044-6.701
					c-0.034-3.073,2.189-3.205,4.933-3.235C290.578,162.637,292.803,162.719,292.838,165.792z"/>
				<path style="opacity:0.2;" d="M292.838,165.792c0.034,3.073-2.149,6.782-4.893,6.813c-2.744,0.031-5.01-3.628-5.044-6.701
					c-0.034-3.073,2.189-3.205,4.933-3.235C290.578,162.637,292.803,162.719,292.838,165.792z"/>
				<path style="fill:#407BFF;" d="M284.92,164.29c0,0,1.958,1.817,6.324,1.171C291.244,165.462,284.134,169.467,284.92,164.29z"/>
				<path style="fill:#407BFF;" d="M286.803,163.822c0,0,2.434-0.237,2.394,0.768c0,0,2.047,0.04,1.829-0.834
					C290.809,162.883,286.803,163.822,286.803,163.822z"/>
				<path style="opacity:0.4;" d="M284.92,164.29c0,0,1.958,1.817,6.324,1.171C291.244,165.462,284.134,169.467,284.92,164.29z"/>
				<path style="opacity:0.4;" d="M286.803,163.822c0,0,2.434-0.237,2.394,0.768c0,0,2.047,0.04,1.829-0.834
					C290.809,162.883,286.803,163.822,286.803,163.822z"/>
			</g>
			<g>
				<path style="fill:#407BFF;" d="M309.92,174.913c-2.075,2.267-6.203,3.483-8.228,1.63c-2.024-1.853-1.178-6.072,0.897-8.339
					c2.075-2.267,3.788-0.844,5.812,1.009S311.995,172.646,309.92,174.913z"/>
				<path style="opacity:0.2;" d="M309.92,174.913c-2.075,2.267-6.203,3.483-8.228,1.63c-2.024-1.853-1.178-6.072,0.897-8.339
					c2.075-2.267,3.788-0.844,5.812,1.009S311.995,172.646,309.92,174.913z"/>
				<path style="fill:#407BFF;" d="M305.166,168.406c0,0,0.188,2.665,3.816,5.177C308.982,173.583,301.054,171.648,305.166,168.406z
					"/>
				<path style="fill:#407BFF;" d="M306.86,169.352c0,0,1.939,1.49,1.222,2.197c0,0,1.467,1.428,1.905,0.641
					C310.426,171.403,306.86,169.352,306.86,169.352z"/>
				<path style="opacity:0.4;" d="M305.166,168.406c0,0,0.188,2.665,3.816,5.177C308.982,173.583,301.054,171.648,305.166,168.406z"
					/>
				<path style="opacity:0.4;" d="M306.86,169.352c0,0,1.939,1.49,1.222,2.197c0,0,1.467,1.428,1.905,0.641
					C310.426,171.403,306.86,169.352,306.86,169.352z"/>
			</g>
			<g>
				<path style="fill:#407BFF;" d="M298.478,172.4c-0.828,2.96-3.962,5.909-6.604,5.17c-2.643-0.739-3.793-4.886-2.966-7.845
					c0.827-2.96,2.999-2.464,5.641-1.725C297.192,168.739,299.306,169.441,298.478,172.4z"/>
				<path style="opacity:0.1;" d="M298.478,172.4c-0.828,2.96-3.962,5.909-6.604,5.17c-2.643-0.739-3.793-4.886-2.966-7.845
					c0.827-2.96,2.999-2.464,5.641-1.725C297.192,168.739,299.306,169.441,298.478,172.4z"/>
				<path style="fill:#407BFF;" d="M291.298,168.742c0,0,1.371,2.292,5.743,2.895C297.041,171.637,289.093,173.492,291.298,168.742z
					"/>
				<path style="fill:#407BFF;" d="M293.237,168.82c0,0,2.403,0.454,2.083,1.408c0,0,1.954,0.612,1.99-0.288
					C297.345,169.039,293.237,168.82,293.237,168.82z"/>
				<path style="opacity:0.3;" d="M291.298,168.742c0,0,1.371,2.292,5.743,2.895C297.041,171.637,289.093,173.492,291.298,168.742z"
					/>
				<path style="opacity:0.3;" d="M293.237,168.82c0,0,2.403,0.454,2.083,1.408c0,0,1.954,0.612,1.99-0.288
					C297.345,169.039,293.237,168.82,293.237,168.82z"/>
			</g>
			<g>
				<path style="fill:#407BFF;" d="M285.551,165.704c1.343,2.764,0.953,7.05-1.515,8.249c-2.468,1.199-6.079-1.142-7.422-3.906
					c-1.343-2.764,0.611-3.833,3.079-5.032S284.208,162.94,285.551,165.704z"/>
				<path style="opacity:0.1;" d="M285.551,165.704c1.343,2.764,0.953,7.05-1.515,8.249c-2.468,1.199-6.079-1.142-7.422-3.906
					c-1.343-2.764,0.611-3.833,3.079-5.032S284.208,162.94,285.551,165.704z"/>
				<path style="fill:#407BFF;" d="M277.75,167.727c0,0,2.546,0.807,6.218-1.641C283.969,166.087,279.249,172.744,277.75,167.727z"
					/>
				<path style="fill:#407BFF;" d="M279.253,166.5c0,0,2.1-1.254,2.493-0.327c0,0,1.868-0.837,1.298-1.535
					C282.474,163.94,279.253,166.5,279.253,166.5z"/>
				<path style="opacity:0.3;" d="M277.75,167.727c0,0,2.546,0.807,6.218-1.641C283.969,166.087,279.249,172.744,277.75,167.727z"/>
				<path style="opacity:0.3;" d="M279.253,166.5c0,0,2.1-1.254,2.493-0.327c0,0,1.868-0.837,1.298-1.535
					C282.474,163.94,279.253,166.5,279.253,166.5z"/>
			</g>
			<g>
				<path style="fill:#407BFF;" d="M307.086,174.153c-0.988,2.91-4.278,5.684-6.877,4.802s-3.521-5.085-2.533-7.996
					c0.988-2.91,3.129-2.296,5.727-1.414C306.001,170.427,308.074,171.243,307.086,174.153z"/>
				<path style="fill:#407BFF;" d="M300.116,170.109c0,0,1.244,2.364,5.576,3.204C305.692,173.313,297.655,174.73,300.116,170.109z"
					/>
				<path style="fill:#407BFF;" d="M302.048,170.292c0,0,2.375,0.584,2.003,1.519c0,0,1.917,0.717,2.002-0.179
					C306.138,170.735,302.048,170.292,302.048,170.292z"/>
				<path style="opacity:0.2;" d="M300.116,170.109c0,0,1.244,2.364,5.576,3.204C305.692,173.313,297.655,174.73,300.116,170.109z"
					/>
				<path style="opacity:0.2;" d="M302.048,170.292c0,0,2.375,0.584,2.003,1.519c0,0,1.917,0.717,2.002-0.179
					C306.138,170.735,302.048,170.292,302.048,170.292z"/>
			</g>
			<g>
				<g>
					<polygon style="fill:#407BFF;" points="292.492,182.308 298.043,183.552 296.609,185.909 291.291,183.378 					"/>
					<polygon style="opacity:0.1;" points="292.492,182.308 298.043,183.552 296.609,185.909 291.291,183.378 					"/>
				</g>
				<polygon style="fill:#407BFF;" points="285.697,181.573 298.604,182.055 297.847,183.179 291.874,184.056 285.076,184.343 				
					"/>
			</g>
			<g>
				<path style="fill:#407BFF;" d="M291.551,168.469c0.237,3.064-1.696,6.909-4.432,7.121c-2.736,0.212-5.238-3.29-5.475-6.354
					c-0.237-3.064,1.973-3.342,4.708-3.554C289.087,165.47,291.314,165.405,291.551,168.469z"/>
				<path style="fill:#407BFF;" d="M283.551,167.493c0,0,2.074,1.683,6.387,0.751C289.939,168.245,283.108,172.711,283.551,167.493z
					"/>
				<path style="fill:#407BFF;" d="M285.399,166.902c0,0,2.413-0.397,2.439,0.609c0,0,2.045-0.095,1.77-0.953
					C289.334,165.7,285.399,166.902,285.399,166.902z"/>
				<path style="opacity:0.2;" d="M283.551,167.493c0,0,2.074,1.683,6.387,0.751C289.939,168.245,283.108,172.711,283.551,167.493z"
					/>
				<path style="opacity:0.2;" d="M285.399,166.902c0,0,2.413-0.397,2.439,0.609c0,0,2.045-0.095,1.77-0.953
					C289.334,165.7,285.399,166.902,285.399,166.902z"/>
			</g>
		</g>
	</g>
</g>
<g id="Character_1">
	<g>
		<polygon style="fill:#FFB573;" points="187.591,387.613 187.994,400.993 195.009,400.234 195.294,388.082 		"/>
		<path style="fill:#263238;" d="M196.239,399.327l-8.89,0.267c-0.335,0.01-0.618,0.251-0.682,0.58l-1.39,7.28
			c-0.128,0.645,0.291,1.271,0.936,1.399c0.083,0.016,0.167,0.024,0.251,0.023c3.203-0.152,6.047-0.413,10.037-0.527
			c4.708-0.14,3.53,0.459,9.068,0.372c3.336-0.056,3.833-3.865,2.414-4.009c-6.497-0.621-7.227-2.555-9.794-4.797
			C197.633,399.487,196.939,399.277,196.239,399.327z"/>
		<polygon style="opacity:0.2;" points="187.654,389.723 187.805,394.737 195.141,394.617 195.236,390.582 		"/>
		<polygon style="fill:#FFB573;" points="151.689,387.289 150.939,400.654 157.994,400.501 159.324,388.419 		"/>
		<path style="fill:#263238;" d="M159.297,399.703l-8.88-0.499c-0.335-0.019-0.638,0.197-0.729,0.519l-2.011,7.133
			c-0.183,0.632,0.18,1.292,0.812,1.475c0.081,0.023,0.164,0.038,0.249,0.044c3.204,0.124,6.06,0.109,10.045,0.339
			c4.703,0.266,3.478,0.762,9.002,1.151c3.329,0.232,4.152-3.521,2.75-3.787c-6.419-1.178-6.981-3.167-9.344-5.622
			C160.673,399.983,159.999,399.714,159.297,399.703z"/>
		<polygon style="opacity:0.2;" points="151.571,389.397 151.29,394.405 158.609,394.917 159.05,390.905 		"/>
		<path style="fill:#263238;" d="M172.279,228.007h12.375c0,0,12.649,65.222,14.136,87.275c1.3,19.275-2,77.25-2,77.25h-11.261
			c0,0-1.882-29.286-3.177-52.268c-0.499-8.862-0.061-16.786-0.656-21.732c-2.492-20.69-20.583-53-16.292-81.75
			C165.404,236.783,164.862,228.065,172.279,228.007z"/>
		<path style="opacity:0.4;" d="M172.279,265.533l-5.573-1.6c4.08,20.41,13.266,40.286,14.99,54.6
			C183.362,288.033,172.279,265.533,172.279,265.533z"/>
		<path style="fill:#263238;" d="M153.529,228.007l26.167-0.058l-9.667,95.333l-9.5,69.25l-11.417-1c0,0,1.873-22.438,1.856-45.5
			c-0.007-10.172,0.942-20.077,0.811-27.5C151.379,295.9,142.529,267.732,153.529,228.007z"/>
		<path style="fill:#263238;" d="M157.082,142.908c0,0-9.306-1.097-7.681,7.889c1.625,8.986-7.5,8.111-2.125,17.111
			s-4.125,8.75,2.5,17.75c7.502,10.191,31.129-0.425,30.752-6.4c-0.377-5.975-3.252-3.717-1.95-8.365
			c1.591-5.68,4.825-4.912,1.955-11.298c-2.166-4.82-3.757-5.688-3.257-10.813S169.281,133.533,157.082,142.908z"/>
		<g>
			<path style="fill:#FFFFFF;" d="M152.136,180.189c0,0,0.554-0.315,1.859-0.406c3.744-0.262,11.95-0.516,17.694,0
				c0.357,0.032,0.704-0.039,1.041,0l7.08,16.878l4.25,31.043l-20.375,0.058C163.685,227.761,157.814,194.576,152.136,180.189z"/>
		</g>
		<path style="fill:#FFB573;" d="M155.255,163.255c0.662,1.257,1.796,2.199,3.152,2.619c1.802,0.541,2.74-1.059,2.271-2.78
			c-0.42-1.544-1.867-3.694-3.694-3.484c-1.325,0.194-2.242,1.425-2.049,2.75C154.983,162.676,155.091,162.98,155.255,163.255z"/>
		<path style="fill:#407BFF;" d="M209.213,204.545c-3.17,3.281-9.902,9.881-13.035,10.182c-4.178,0.401-12.925-14.873-12.925-14.873
			l-4.308-15.666l-3.917-3.656c0,0,7.442,0.576,11.228,6.555c3.786,5.979,10.836,18.642,10.836,18.642l8.855-5.472L209.213,204.545z
			"/>
		<g>
			<g>
				<polygon style="fill:#263238;" points="165.404,226.408 184.654,225.658 184.654,229.908 165.654,229.908 				"/>
			</g>
			<g style="opacity:0.4;">
				<polygon points="165.404,226.408 184.654,225.658 184.654,229.908 165.654,229.908 				"/>
			</g>
		</g>
		<g>
			<path style="fill:#263238;" d="M176.612,224.449c-1.093,0-2.047,0.65-2.595,1.623l2.595-0.101v3.937h-2.556
				c0.554,0.93,1.492,1.542,2.556,1.542c1.703,0,3.083-1.567,3.083-3.5S178.315,224.449,176.612,224.449z"/>
			<path style="opacity:0.7;fill:#FFFFFF;" d="M176.612,224.449c-1.093,0-2.047,0.65-2.595,1.623l2.595-0.101v3.937h-2.556
				c0.554,0.93,1.492,1.542,2.556,1.542c1.703,0,3.083-1.567,3.083-3.5S178.315,224.449,176.612,224.449z"/>
		</g>
		<path style="fill:#FFB573;" d="M167.476,190.283l3.488-0.813l0.725-9.59c-0.357-0.025-0.709-0.057-0.903-0.097
			c-4.933-1.01-4.449-4.469-3.35-7.791l-7.686-7.84c0.485,4.445,1.208,13.449-2.667,15.179c-0.489,0.218-1.546,0.394-2.479,0.515
			L167.476,190.283z"/>
		<g>
			<polygon style="fill:#407BFF;" points="154.654,179.667 169.779,189.158 171.029,179.667 172.279,179.783 173.945,192.616 
				170.362,190.199 167.112,193.949 153.529,179.783 			"/>
			<polygon style="opacity:0.8;fill:#FFFFFF;" points="154.654,179.667 169.779,189.158 171.029,179.667 172.279,179.783 
				173.945,192.616 170.362,190.199 167.112,193.949 153.529,179.783 			"/>
		</g>
		<path style="fill:#407BFF;" d="M150.279,240.283c0,0,19.5,6,19.5-7s-6-36.25-16.25-53.5c0,0-8.75,1-9.5,7.5
			S154.279,208.033,150.279,240.283z"/>
		<g>
			<path style="fill:#407BFF;" d="M167.566,216.2c-2.61-11.738-7.442-25.318-14.037-36.417c0,0-0.989,0.119-2.322,0.512v9.863
				l5.678,2.75l-2.232,4.125L167.566,216.2z"/>
			<path style="opacity:0.5;fill:#FFFFFF;" d="M167.566,216.2c-2.61-11.738-7.442-25.318-14.037-36.417c0,0-0.989,0.119-2.322,0.512
				v9.863l5.678,2.75l-2.232,4.125L167.566,216.2z"/>
		</g>
		<path style="opacity:0.1;" d="M181.425,193.207l1.828,6.647c0,0,2.782,4.858,5.958,9.023c-2.308-11.879-6.685-19.532-6.685-19.532
			L181.425,193.207z"/>
		<path style="fill:#407BFF;" d="M172.279,179.783c0,0,8.75,25.5,9.75,45.5s6.75,16.382,6.75,16.382s-3.5-8.382-3-23.882
			S184.779,177.783,172.279,179.783z"/>
		<g>
			<path style="fill:#407BFF;" d="M179.279,186.808l-5.94-7.129c-0.345,0.014-0.697,0.045-1.06,0.103c0,0,5.465,15.935,8.25,32.491
				v-19.491l-3.125-2.875L179.279,186.808z"/>
			<path style="opacity:0.5;fill:#FFFFFF;" d="M179.279,186.808l-5.94-7.129c-0.345,0.014-0.697,0.045-1.06,0.103
				c0,0,5.465,15.935,8.25,32.491v-19.491l-3.125-2.875L179.279,186.808z"/>
		</g>
		<path style="fill:#FFB573;" d="M205.947,200.257l2.764-1.708l2.452-4.768c0.428-0.832,1.229-1.407,2.153-1.548l3.121-0.474
			c0.816-0.124,1.646,0.104,2.284,0.627l0.697,0.571c0.941,0.771,1.303,2.046,0.908,3.197l-0.256,0.746
			c-0.362,1.056-1.296,1.797-2.403,1.945c-1.017,0.136-2.215,0.521-2.821,1.531c-1.175,1.958-3.917,2.35-3.917,2.35
			s-0.661,0.725-1.718,1.819L205.947,200.257z"/>
		<g>
			<polygon style="fill:#407BFF;" points="204.475,200.4 206.241,199.087 210.191,204.658 208.592,206.18 			"/>
			<polygon style="opacity:0.5;fill:#FFFFFF;" points="204.475,200.4 206.241,199.087 210.191,204.658 208.592,206.18 			"/>
		</g>
		<path style="opacity:0.2;enable-background:new    ;" d="M162.902,167.385l4.575,4.639c-0.279,0.772-0.49,1.567-0.63,2.376
			c-1.835-0.437-4.502-2.344-4.526-4.316C162.353,169.157,162.55,168.243,162.902,167.385z"/>
		<g>
			<g>
				<path style="fill:#FFB573;" d="M155.837,157.233c1.859,7.105,2.489,10.152,6.846,13.126c6.555,4.478,14.872,0.647,15.179-6.87
					c0.275-6.765-2.805-17.24-10.402-18.719c-5.423-1.085-10.699,2.433-11.783,7.856
					C155.371,154.153,155.426,155.731,155.837,157.233z"/>
				<path style="fill:#263238;" d="M172.649,164.313c0.113,0.59,0.517,1.002,0.897,0.93c0.38-0.073,0.598-0.614,0.485-1.196
					c-0.113-0.582-0.517-1.002-0.897-0.93C172.754,163.19,172.528,163.731,172.649,164.313z"/>
				<path style="fill:#ED893E;" d="M172.188,157.144c0.783,1.234,1.732,2.355,2.821,3.33c-0.516,0.553-1.25,0.849-2.004,0.808
					L172.188,157.144z"/>
				<path style="fill:#263238;" d="M165.185,154.549c-0.051-0.002-0.101-0.016-0.145-0.04c-0.138-0.083-0.183-0.261-0.1-0.399
					c0.001-0.002,0.002-0.003,0.003-0.005c0.548-0.964,1.531-1.6,2.635-1.705c0.159,0,0.29,0.124,0.299,0.283
					c0.005,0.158-0.117,0.29-0.275,0.299c-0.91,0.102-1.715,0.634-2.166,1.431C165.382,154.498,165.287,154.55,165.185,154.549z"/>
				<path style="fill:#263238;" d="M175.874,151.82c-0.051-0.002-0.101-0.016-0.146-0.041c-0.783-0.466-1.741-0.529-2.578-0.17
					c-0.141,0.076-0.318,0.023-0.394-0.118c-0.001-0.001-0.001-0.002-0.002-0.003c-0.071-0.145-0.014-0.321,0.129-0.396
					c1.013-0.45,2.181-0.384,3.136,0.178c0.143,0.073,0.199,0.249,0.126,0.392C176.094,151.763,175.988,151.825,175.874,151.82
					L175.874,151.82z"/>
				<g>
					<path style="fill:#263238;" d="M167.864,156.991c0.113,0.582,0.517,0.994,0.905,0.921c0.388-0.073,0.598-0.606,0.477-1.196
						c-0.121-0.59-0.517-0.994-0.897-0.922C167.969,155.867,167.751,156.4,167.864,156.991z"/>
					<path style="fill:#263238;" d="M174.484,155.689c0.113,0.582,0.517,0.994,0.897,0.921c0.38-0.073,0.598-0.606,0.485-1.196
						c-0.113-0.59-0.517-0.994-0.897-0.921C174.589,154.566,174.363,155.099,174.484,155.689z"/>
					<path style="fill:#263238;" d="M174.807,154.558l1.326-0.679C176.133,153.879,175.624,155.115,174.807,154.558z"/>
					<path style="fill:#263238;" d="M168.188,155.859l1.326-0.679C169.513,155.18,169.004,156.417,168.188,155.859z"/>
				</g>
			</g>
			<path style="fill:#263238;" d="M160.219,142.967c-1.269,2.182,1.899,6.224,8.559,5.836c5.019-0.291,11.316,5.1,10.806-0.727
				C179.156,142.773,166.539,140.235,160.219,142.967z"/>
			<path style="fill:#263238;" d="M164.501,144.55c3.997,2.587,1.338,7.313-0.585,9.436s-4.889,4.113-2.593,7.258
				c2.296,3.145,3.866,11.796-3.457,10.278s-6.989-11.851-4.861-16.624C155.132,150.125,159.742,141.475,164.501,144.55z"/>
			<path style="fill:#407BFF;" d="M175.016,142.021L175.016,142.021c-0.733-2.03-2.764-3.302-4.529-2.839
				c-1.453,0.382-2.262,1.83-2.097,3.463c-0.329-0.163-0.689-0.21-1.023-0.122c-0.344,0.091-0.605,0.31-0.763,0.592
				c-0.357-0.544-0.81-1.017-1.35-1.359c-0.86-0.545-1.808-0.722-2.669-0.493c-0.861,0.227-1.529,0.827-1.88,1.69
				c-0.346,0.85-0.341,1.856,0.011,2.832c0.054,0.149,0.128,0.287,0.195,0.428l-3.131,5.579c0.049,0.375,0.102,0.81,0.148,1.27
				l3.424-6.102c0.337,0.464,0.746,0.868,1.224,1.171c0.615,0.389,1.274,0.59,1.914,0.59c0.256,0,0.509-0.032,0.755-0.097
				c0.861-0.227,1.529-0.827,1.88-1.691c0.346-0.85,0.341-1.856-0.011-2.832c-0.153-0.426,0.058-0.862,0.473-0.971
				c0.415-0.106,0.878,0.149,1.032,0.575c0,0,0,0,0,0.001c0.632,1.747,2.225,2.934,3.782,2.934c0.251,0,0.502-0.031,0.747-0.095
				C174.91,146.08,175.749,144.051,175.016,142.021z M166.536,146.649c-0.285,0.701-0.822,1.188-1.512,1.369
				c-0.689,0.182-1.454,0.038-2.152-0.405c-0.711-0.451-1.267-1.155-1.566-1.983c-0.299-0.828-0.304-1.677-0.014-2.391
				c0.285-0.701,0.822-1.188,1.512-1.369c0.195-0.051,0.395-0.077,0.599-0.077c0.518,0,1.053,0.164,1.554,0.481
				c0.711,0.451,1.267,1.155,1.566,1.983v0C166.822,145.085,166.827,145.934,166.536,146.649z M172.927,145.938
				c-1.435,0.376-3.106-0.693-3.719-2.387c-0.612-1.695,0.06-3.382,1.499-3.761c0.195-0.051,0.395-0.076,0.595-0.076
				c1.276,0,2.594,0.999,3.123,2.463C175.038,143.872,174.366,145.559,172.927,145.938z"/>
		</g>
		<path style="fill:#263238;" d="M156.805,144.573c0,0-0.343-6.816,2.505-6.599C162.157,138.193,158.081,140.375,156.805,144.573z"
			/>
		<path style="opacity:0.1;" d="M150.275,213.736c2.042-15.518,0.205-20.87,0.205-20.87l-2.446,5.667c0,0-0.146,1.385-0.33,3.133
			C148.669,205.062,149.616,209.051,150.275,213.736z"/>
		<path style="opacity:0.1;" d="M160.1,221.949l-5.498,0.987l-3.476,1.278c0.043,1.794,0.033,3.671-0.029,5.622
			C155.364,227.249,160.1,221.949,160.1,221.949z"/>
		<g>
			<g>
				<path style="fill:#407BFF;" d="M248.158,165.598h-3.57v45.584h3.57c1.054,0,1.909-0.855,1.909-1.909v-41.767
					C250.066,166.452,249.212,165.598,248.158,165.598z"/>
				<path style="opacity:0.2;fill:#FFFFFF;" d="M248.158,165.598h-3.57v45.584h3.57c1.054,0,1.909-0.855,1.909-1.909v-41.767
					C250.066,166.452,249.212,165.598,248.158,165.598z"/>
			</g>
			<g>
				<path style="fill:#407BFF;" d="M246.88,211.182h-29.628c-1.318,0-2.386-1.068-2.386-2.386v-40.813
					c0-1.318,1.068-2.386,2.386-2.386h29.628c1.318,0,2.386,1.068,2.386,2.386v40.813
					C249.266,210.114,248.198,211.182,246.88,211.182z"/>
				<path style="opacity:0.5;fill:#FFFFFF;" d="M246.88,211.182h-29.628c-1.318,0-2.386-1.068-2.386-2.386v-40.813
					c0-1.318,1.068-2.386,2.386-2.386h29.628c1.318,0,2.386,1.068,2.386,2.386v40.813
					C249.266,210.114,248.198,211.182,246.88,211.182z"/>
			</g>
			<rect x="217.637" y="167.465" style="fill:#FFFFFF;" width="28.2" height="39.5"/>
			<path style="fill:#263238;" d="M235.765,169.165h-7.396c-1.796,0-3.252-1.456-3.252-3.252v-2.815h13.9v2.815
				C239.016,167.709,237.561,169.165,235.765,169.165z"/>
			<g>
				<path style="opacity:0.7;fill:#FFFFFF;" d="M235.765,169.165h-7.396c-1.796,0-3.252-1.456-3.252-3.252v-2.815h13.9v2.815
					C239.016,167.709,237.561,169.165,235.765,169.165z"/>
				<g>
					<circle style="fill:#263238;" cx="228.204" cy="165.84" r="0.875"/>
					<circle style="fill:#263238;" cx="235.929" cy="165.84" r="0.875"/>
				</g>
			</g>
			<g>
				<g>
					<rect x="238.711" y="172.396" style="fill:#407BFF;" width="4.846" height="4.846"/>
					<rect x="238.711" y="172.396" style="opacity:0.5;fill:#FFFFFF;" width="4.846" height="4.846"/>
				</g>
				<g>
					<g>
						<path d="M220.837,175.419c5.031,0,10.061,0,15.092,0c0.772,0,0.773-1.2,0-1.2c-5.031,0-10.061,0-15.092,0
							C220.065,174.219,220.064,175.419,220.837,175.419L220.837,175.419z"/>
					</g>
					<g style="opacity:0.4;">
						<path style="fill:#FFFFFF;" d="M220.837,175.419c5.031,0,10.061,0,15.092,0c0.772,0,0.773-1.2,0-1.2
							c-5.031,0-10.061,0-15.092,0C220.065,174.219,220.064,175.419,220.837,175.419L220.837,175.419z"/>
					</g>
				</g>
				<g>
					<path d="M244.163,171.699c-1.053,1.053-2.106,2.106-3.159,3.159c-0.651-0.651-1.303-1.303-1.954-1.954
						c-0.547-0.547-1.395,0.302-0.848,0.849c0.793,0.793,1.586,1.585,2.378,2.378c0.229,0.229,0.619,0.23,0.848,0
						c1.195-1.195,2.389-2.389,3.583-3.583C245.558,172,244.71,171.152,244.163,171.699z"/>
					<path style="opacity:0.4;fill:#FFFFFF;" d="M244.163,171.699c-1.053,1.053-2.106,2.106-3.159,3.159
						c-0.651-0.651-1.303-1.303-1.954-1.954c-0.547-0.547-1.395,0.302-0.848,0.849c0.793,0.793,1.586,1.585,2.378,2.378
						c0.229,0.229,0.619,0.23,0.848,0c1.195-1.195,2.389-2.389,3.583-3.583C245.558,172,244.71,171.152,244.163,171.699z"/>
				</g>
			</g>
			<g>
				<g>
					<rect x="238.711" y="179.897" style="fill:#407BFF;" width="4.846" height="4.846"/>
					<rect x="238.711" y="179.897" style="opacity:0.5;fill:#FFFFFF;" width="4.846" height="4.846"/>
				</g>
				<g>
					<g>
						<path d="M220.837,182.92c5.031,0,6.861,0,11.892,0c0.772,0,0.773-1.2,0-1.2c-5.031,0-6.861,0-11.892,0
							C220.065,181.72,220.064,182.92,220.837,182.92L220.837,182.92z"/>
					</g>
					<g style="opacity:0.4;">
						<path style="fill:#FFFFFF;" d="M220.837,182.92c5.031,0,6.861,0,11.892,0c0.772,0,0.773-1.2,0-1.2c-5.031,0-6.861,0-11.892,0
							C220.065,181.72,220.064,182.92,220.837,182.92L220.837,182.92z"/>
					</g>
				</g>
				<g>
					<path d="M244.163,179.2c-1.053,1.053-2.106,2.106-3.159,3.159c-0.651-0.651-1.303-1.303-1.954-1.954
						c-0.547-0.547-1.395,0.302-0.848,0.849c0.793,0.793,1.586,1.586,2.378,2.378c0.229,0.229,0.619,0.23,0.848,0
						c1.195-1.195,2.389-2.389,3.583-3.584C245.558,179.501,244.71,178.653,244.163,179.2z"/>
					<path style="opacity:0.4;fill:#FFFFFF;" d="M244.163,179.2c-1.053,1.053-2.106,2.106-3.159,3.159
						c-0.651-0.651-1.303-1.303-1.954-1.954c-0.547-0.547-1.395,0.302-0.848,0.849c0.793,0.793,1.586,1.586,2.378,2.378
						c0.229,0.229,0.619,0.23,0.848,0c1.195-1.195,2.389-2.389,3.583-3.584C245.558,179.501,244.71,178.653,244.163,179.2z"/>
				</g>
			</g>
			<g>
				<g>
					<rect x="238.711" y="187.398" style="fill:#407BFF;" width="4.846" height="4.846"/>
					<rect x="238.711" y="187.398" style="opacity:0.5;fill:#FFFFFF;" width="4.846" height="4.846"/>
				</g>
				<g>
					<g>
						<path d="M220.837,190.421c5.031,0,9.261,0,14.292,0c0.772,0,0.773-1.2,0-1.2c-5.031,0-9.261,0-14.292,0
							C220.065,189.221,220.064,190.421,220.837,190.421L220.837,190.421z"/>
					</g>
					<g style="opacity:0.4;">
						<path style="fill:#FFFFFF;" d="M220.837,190.421c5.031,0,9.261,0,14.292,0c0.772,0,0.773-1.2,0-1.2c-5.031,0-9.261,0-14.292,0
							C220.065,189.221,220.064,190.421,220.837,190.421L220.837,190.421z"/>
					</g>
				</g>
				<g>
					<path d="M244.163,186.701c-1.053,1.053-2.106,2.106-3.159,3.159c-0.651-0.651-1.303-1.303-1.954-1.954
						c-0.547-0.547-1.395,0.301-0.848,0.848c0.793,0.793,1.586,1.586,2.378,2.378c0.229,0.229,0.619,0.23,0.848,0
						c1.195-1.195,2.389-2.389,3.583-3.583C245.558,187.002,244.71,186.154,244.163,186.701z"/>
					<path style="opacity:0.4;fill:#FFFFFF;" d="M244.163,186.701c-1.053,1.053-2.106,2.106-3.159,3.159
						c-0.651-0.651-1.303-1.303-1.954-1.954c-0.547-0.547-1.395,0.301-0.848,0.848c0.793,0.793,1.586,1.586,2.378,2.378
						c0.229,0.229,0.619,0.23,0.848,0c1.195-1.195,2.389-2.389,3.583-3.583C245.558,187.002,244.71,186.154,244.163,186.701z"/>
				</g>
			</g>
			<g>
				<g>
					<rect x="238.711" y="194.899" style="fill:#407BFF;" width="4.846" height="4.846"/>
					<rect x="238.711" y="194.899" style="opacity:0.5;fill:#FFFFFF;" width="4.846" height="4.846"/>
				</g>
				<g>
					<g>
						<path d="M220.837,197.922c5.031,0,8.461,0,13.492,0c0.772,0,0.773-1.2,0-1.2c-5.031,0-8.461,0-13.492,0
							C220.065,196.722,220.064,197.922,220.837,197.922L220.837,197.922z"/>
					</g>
					<g style="opacity:0.4;">
						<path style="fill:#FFFFFF;" d="M220.837,197.922c5.031,0,8.461,0,13.492,0c0.772,0,0.773-1.2,0-1.2c-5.031,0-8.461,0-13.492,0
							C220.065,196.722,220.064,197.922,220.837,197.922L220.837,197.922z"/>
					</g>
				</g>
			</g>
		</g>
		<path style="fill:#FFB573;" d="M213.216,193.033c0,0,4.421-0.393,4.998,0c0.245,0.167,0.125,0.918,0,1.188
			c-0.164,0.352-0.885,0.523-1.25,0.656c-0.69,0.252-2.875,0.344-2.875,0.344L213.216,193.033z"/>
		<g>
			<path style="fill:#263238;" d="M180.529,206.439c0,0.348-1.045,0.631-2.333,0.631c-1.289,0-2.334-0.282-2.334-0.631
				s1.045-0.631,2.334-0.631C179.484,205.808,180.529,206.09,180.529,206.439z"/>
			<g>
				<polygon style="fill:#263238;" points="179.003,205.58 176.805,205.168 161.971,205.168 161.971,207.709 176.805,207.709 
					179.003,207.297 				"/>
				<polygon style="opacity:0.5;fill:#FFFFFF;" points="179.003,205.58 176.805,205.168 161.971,205.168 161.971,207.709 
					176.805,207.709 179.003,207.297 				"/>
			</g>
			<rect x="161.971" y="205.168" style="fill:#263238;" width="0.721" height="2.541"/>
		</g>
		<g>
			<path style="fill:#407BFF;" d="M160.1,216.089c-3.133,1.446-8.016,3.277-12.655,3.277c0,0,3.093-17.505,3.762-23.39
				c0.412-3.623,0.996-14.893-3.466-14.168c0,0-5.296,0.225-7.296,19.058s-3,23,0,26.167c2.53,2.67,15.014-1.296,21.964-5.403
				L160.1,216.089z"/>
			<path style="fill:#FFB573;" d="M162.409,221.629c1.292-0.764,2.393-1.532,3.203-2.264l3.387-1.964
				c1.124-0.76,1.839-1.991,1.942-3.344l0,0c0.109-1.448,0.799-2.79,1.912-3.722l0.13-0.108c1.377-1.154,1.663-3.16,0.664-4.652
				l-0.235-0.351c-0.701-1.046-1.908-1.638-3.164-1.552l-1.018,0.07c-1.121,0.077-2.138,0.686-2.736,1.638l-0.94,1.496
				c-0.192,0.306-0.336,0.64-0.427,0.99l-1.682,6.5c0,0-1.3,0.78-3.345,1.723L162.409,221.629z"/>
			<g>
				<polygon style="fill:#407BFF;" points="158.672,216.044 160.583,215.154 163.57,221.908 161.549,222.936 				"/>
				<polygon style="opacity:0.5;fill:#FFFFFF;" points="158.672,216.044 160.583,215.154 163.57,221.908 161.549,222.936 				"/>
			</g>
		</g>
	</g>
</g>
</svg>
